<svg width="46" height="46" fill="currentColor" viewBox="0 0 24 24" xmlns="http://www.w3.org/2000/svg">
  <path d="M18.806 12.919a3.999 3.999 0 0 0-.39-7.896 4 4 0 0 0-3.397 1.31 1 1 0 0 0 1.49 1.334 1.992 1.992 0 0 1 1.695-.657A2 2 0 0 1 18 11H3a1 1 0 0 0 0 2h15c.276 0 .546-.028.806-.081ZM5 9.999h5.516a2.5 2.5 0 1 0-1.88-4.166 1 1 0 0 0 1.491 1.334A.5.5 0 1 1 10.5 8H5a1 1 0 0 0 0 2Zm11.5 4H8a1 1 0 0 0 0 2h8.5a.5.5 0 1 1-.373.834 1 1 0 1 0-1.49 1.334A2.5 2.5 0 1 0 16.517 14H16.5Z"></path>
</svg>