<svg width="32" height="32" viewBox="0 0 32 32" fill="none" xmlns="http://www.w3.org/2000/svg">
<path d="M0 16C0 24.8366 7.16344 32 16 32C24.8366 32 32 24.8366 32 16C32 7.16344 24.8366 0 16 0C7.16344 0 0 7.16344 0 16Z" fill="#222222"/>
<path d="M23.2382 15.0716L23.9615 14.3483C23.9877 14.322 24.0492 14.2604 23.9247 14.1323C23.8714 14.0773 23.8227 14.0492 23.7801 14.0489C23.7435 14.0489 23.718 14.0686 23.6987 14.0879L22.9737 14.8129L22.2499 14.0846C22.1914 14.026 22.1229 14.0398 22.0346 14.128C21.9447 14.2183 21.9301 14.2876 21.9883 14.3462L22.7122 15.0744L22.0032 15.7834L21.9982 15.7884C21.9809 15.8051 21.9549 15.8303 21.9545 15.8715C21.9542 15.9139 21.9825 15.9639 22.0386 16.02C22.0859 16.0674 22.1308 16.0914 22.172 16.0914C22.2184 16.0914 22.2481 16.0616 22.2649 16.0449L22.9766 15.3332L23.7043 16.061C23.7135 16.0702 23.7391 16.0913 23.7803 16.0913H23.7818C23.8278 16.0907 23.8762 16.064 23.9258 16.012C24.0075 15.9262 24.0211 15.8548 23.9663 15.7996L23.2382 15.0716ZM20.6252 14.0326C20.0892 14.0733 19.6693 14.5448 19.6693 15.1058V16.8799C19.6693 16.9827 19.7475 17.0037 19.8647 17.0037C19.982 17.0037 20.0602 16.9827 20.0602 16.8799V15.1017C20.0602 14.7521 20.3145 14.4519 20.6391 14.4183C20.8254 14.3993 21.0046 14.4577 21.1439 14.5833C21.2807 14.7066 21.3591 14.8838 21.3592 15.0696C21.3592 15.1228 21.3332 15.296 21.2143 15.4567C21.1244 15.5782 20.9542 15.7229 20.6522 15.7229C20.6506 15.7229 20.6484 15.7229 20.6465 15.7229C20.569 15.7229 20.5029 15.7265 20.4902 15.9101C20.4816 16.0336 20.4823 16.0888 20.589 16.1036C20.7793 16.13 20.9734 16.0928 21.1656 15.9929C21.494 15.8221 21.714 15.4984 21.7398 15.1481C21.7623 14.8438 21.6526 14.547 21.4387 14.3337C21.2241 14.1197 20.9277 14.01 20.6252 14.0326ZM9.52794 15.2084C9.14388 15.1532 8.76936 15.2554 8.46433 15.4902V14.4336H10.2548C10.317 14.4336 10.3616 14.4224 10.3616 14.2387C10.3616 14.0594 10.2894 14.0523 10.2418 14.0523H8.25909C8.14396 14.0523 8.08305 14.1454 8.08305 14.2487V15.9828C8.08305 16.0737 8.14069 16.1045 8.24796 16.1258C8.34188 16.1443 8.39641 16.1335 8.43748 16.088L8.4418 16.0813C8.63069 15.809 9.04169 15.5453 9.43234 15.5931C9.89863 15.6502 10.2741 16.0221 10.3254 16.4776C10.3582 16.7681 10.2695 17.0475 10.0759 17.2641C9.88476 17.478 9.61114 17.6007 9.3253 17.6007C8.90185 17.6007 8.53175 17.3285 8.37764 16.9335C8.35483 16.875 8.31629 16.8317 8.14947 16.8923C7.9962 16.9481 7.98731 17.0126 8.00845 17.071C8.20909 17.6234 8.73828 17.9947 9.32524 17.9947C9.72278 17.9947 10.1032 17.8242 10.369 17.527C10.6384 17.226 10.7607 16.8379 10.7156 16.4342C10.645 15.8023 10.1559 15.2983 9.52794 15.2084ZM17.2692 17.5749C16.4043 17.5749 15.7006 16.8712 15.7006 16.0064C15.7006 15.1415 16.4043 14.4379 17.2692 14.4379C18.134 14.4379 18.8375 15.1415 18.8375 16.0064C18.8375 16.8712 18.134 17.5749 17.2692 17.5749ZM17.2692 14.0128C16.1698 14.0128 15.2754 14.9071 15.2754 16.0064C15.2754 17.1057 16.1698 18 17.2692 18C18.3685 18 19.2628 17.1057 19.2628 16.0064C19.2628 14.9071 18.3685 14.0128 17.2692 14.0128ZM12.9546 17.5749C12.0897 17.5749 11.3861 16.8712 11.3861 16.0064C11.3861 15.1415 12.0897 14.4379 12.9546 14.4379C13.8194 14.4379 14.523 15.1415 14.523 16.0064C14.523 16.8712 13.8194 17.5749 12.9546 17.5749ZM12.9546 14.0128C11.8552 14.0128 10.9608 14.9071 10.9608 16.0064C10.9608 17.1057 11.8552 18 12.9546 18C14.0539 18 14.9482 17.1057 14.9482 16.0064C14.9482 14.9071 14.0539 14.0128 12.9546 14.0128Z" fill="white"/>
</svg>
