<svg width="32" height="32" viewBox="0 0 32 32" fill="none" xmlns="http://www.w3.org/2000/svg">
<path d="M0 16C0 24.8366 7.16344 32 16 32C24.8366 32 32 24.8366 32 16C32 7.16344 24.8366 0 16 0C7.16344 0 0 7.16344 0 16Z" fill="white"/>
<path d="M24.2 16C24.2 18.1 22.5 19.8 20.4 19.8C18.3 19.8 16.6 18.1 16.6 16C16.6 13.9 18.3 12.2 20.4 12.2C22.5 12.2 24.2 13.9 24.2 16Z" fill="#FF0084"/>
<path d="M15.5 16C15.5 18.1 13.8 19.8 11.7 19.8C9.59999 19.8 7.89999 18.1 7.89999 16C7.89999 13.9 9.59999 12.2 11.7 12.2C13.7 12.2 15.5 13.9 15.5 16Z" fill="#0063DC"/>
</svg>
