<svg width="32" height="32" viewBox="0 0 32 32" fill="none" xmlns="http://www.w3.org/2000/svg">
<path d="M0 16C0 7.16344 7.16344 0 16 0C24.8366 0 32 7.16344 32 16C32 24.8366 24.8366 32 16 32C7.16344 32 0 24.8366 0 16Z" fill="#000B1D"/>
<path d="M18.2157 15.244L19.5245 15.2826L19.539 22.1785C19.539 22.2899 19.5883 22.3457 19.6876 22.3457H21.8022C21.8767 22.3457 21.9231 22.3271 21.9417 22.2899C21.9595 22.2555 21.969 22.2173 21.9694 22.1785L21.9549 15.2826H23.77C23.8814 15.2827 23.9372 15.2394 23.9372 15.1526V13.5175C23.9399 13.4784 23.9301 13.4393 23.9092 13.4061C23.8906 13.3813 23.844 13.369 23.77 13.369H21.9549V12.6262C21.9445 12.3455 21.9855 12.0654 22.0757 11.7995C22.141 11.6129 22.2734 11.4572 22.4472 11.3629C22.6823 11.2732 22.9324 11.229 23.1841 11.2329H23.4626C23.5616 11.2329 23.7644 11.2392 23.8511 11.2515C23.9503 11.2763 23.9999 11.2454 23.9999 11.1586V9.31946C24.0009 9.27866 23.9888 9.23862 23.9654 9.2052C23.942 9.17178 23.9085 9.14674 23.8698 9.13375C23.6947 9.08149 23.5147 9.04723 23.3326 9.03152C23.1537 9.01205 22.9738 9.00276 22.7938 9.0037C22.1516 8.97233 21.5155 9.14107 20.9733 9.48664C20.5193 9.8037 20.1547 10.2323 19.9145 10.7313C19.7738 11.0293 19.6738 11.3448 19.6171 11.6695C19.5527 12.2215 19.5218 12.7768 19.5245 13.3326V13.369L18.2157 13.3546C18.198 13.3521 18.18 13.3537 18.1631 13.3594C18.1461 13.365 18.1308 13.3745 18.1181 13.3871C18.1055 13.3998 18.096 13.4151 18.0903 13.4321C18.0847 13.449 18.083 13.467 18.0855 13.4847V15.114C18.0855 15.1882 18.1289 15.2317 18.2157 15.244Z" fill="white"/>
<path fill-rule="evenodd" clip-rule="evenodd" d="M8 10.2575V22.128C8 22.227 8.04339 22.2766 8.13019 22.2766H10.3042C10.3269 22.2798 10.3501 22.2777 10.3718 22.2704C10.3936 22.2632 10.4133 22.2509 10.4296 22.2347C10.4458 22.2185 10.458 22.1987 10.4653 22.177C10.4725 22.1552 10.4746 22.1321 10.4714 22.1094V18.4498C10.6942 18.4498 10.8614 18.453 10.973 18.4591C11.0841 18.4653 11.276 18.4684 11.5486 18.4684C12.4347 18.4799 13.3156 18.332 14.1494 18.0318C14.8974 17.7653 15.5458 17.2758 16.0069 16.6293C16.4888 15.9048 16.7294 15.0466 16.6943 14.1772C16.696 13.6673 16.608 13.1611 16.4344 12.6817C16.2507 12.1892 15.9623 11.7424 15.5891 11.3722C15.1489 10.945 14.6189 10.6213 14.0378 10.4248C13.2716 10.1705 12.4671 10.051 11.6601 10.0717C11.3135 10.0718 10.9636 10.0749 10.6106 10.0811C10.2576 10.0874 9.92325 10.0936 9.6075 10.0997C9.2915 10.1059 8.99732 10.1121 8.72496 10.1182C8.45235 10.1246 8.30936 10.1275 8.11154 10.1275C8.03726 10.1275 8 10.171 8 10.2575ZM10.4714 16.202V12.3566C10.5577 12.3445 10.7156 12.3352 10.9451 12.3288C11.1742 12.3226 11.4373 12.3195 11.7345 12.3195C12.1975 12.3049 12.6588 12.3839 13.0906 12.5518C13.4213 12.6834 13.7034 12.9137 13.8986 13.2112C14.0844 13.519 14.1779 13.8736 14.168 14.2329C14.1938 14.6598 14.0653 15.0817 13.8059 15.4218C13.5553 15.7127 13.2263 15.9256 12.8582 16.0349C12.4276 16.1646 11.9796 16.2272 11.53 16.2206H10.9171C10.7808 16.2207 10.6322 16.2145 10.4714 16.202Z" fill="white"/>
</svg>
