<svg width="32" height="32" viewBox="0 0 32 32" fill="none" xmlns="http://www.w3.org/2000/svg">
<path d="M0 16C0 24.8366 7.16344 32 16 32C24.8366 32 32 24.8366 32 16C32 7.16344 24.8366 0 16 0C7.16344 0 0 7.16344 0 16Z" fill="#EA4C89"/>
<path d="M16 8C11.584 8 8 11.584 8 16C8 20.416 11.584 24 16 24C20.4 24 24 20.416 24 16C24 11.584 20.4 8 16 8ZM21.28 11.68C22.24 12.848 22.8 14.32 22.832 15.936C22.608 15.888 20.352 15.44 18.08 15.712C18.032 15.6 17.984 15.472 17.936 15.36C17.792 15.024 17.648 14.688 17.488 14.368C19.984 13.36 21.136 11.872 21.28 11.68ZM16 9.184C17.728 9.184 19.328 9.84 20.528 10.896C20.4 11.072 19.376 12.448 16.944 13.36C15.824 11.296 14.576 9.616 14.4 9.36C14.912 9.248 15.44 9.184 16 9.184ZM13.088 9.824C13.264 10.064 14.48 11.76 15.616 13.776C12.416 14.624 9.6 14.608 9.296 14.608C9.76 12.48 11.184 10.72 13.088 9.824ZM9.168 16.016C9.168 15.952 9.168 15.872 9.168 15.808C9.456 15.824 12.784 15.856 16.192 14.832C16.384 15.216 16.576 15.6 16.752 16C16.672 16.032 16.576 16.048 16.48 16.08C12.96 17.216 11.088 20.32 10.928 20.576C9.824 19.36 9.168 17.76 9.168 16.016ZM16 22.832C14.416 22.832 12.96 22.288 11.808 21.392C11.936 21.136 13.312 18.464 17.168 17.12C17.184 17.104 17.2 17.104 17.216 17.104C18.176 19.6 18.576 21.68 18.672 22.288C17.856 22.64 16.944 22.832 16 22.832ZM19.808 21.664C19.744 21.248 19.376 19.248 18.48 16.8C20.624 16.464 22.496 17.024 22.736 17.088C22.432 18.992 21.344 20.64 19.808 21.664Z" fill="white"/>
</svg>
