<svg width="32" height="32" viewBox="0 0 32 32" fill="none" xmlns="http://www.w3.org/2000/svg">
<path d="M0 16C0 24.8366 7.16344 32 16 32C24.8366 32 32 24.8366 32 16C32 7.16344 24.8366 0 16 0C7.16344 0 0 7.16344 0 16Z" fill="#0061FF"/>
<path d="M16 11.7624L12 14.3088L16 16.8553L12 19.4017L8 16.8553L12 14.3088L8 11.7624L12 9.216L16 11.7624ZM11.9894 20.2505L15.9894 17.7041L19.9894 20.2505L15.9894 22.7969L11.9894 20.2505ZM16 16.8553L20 14.3088L16 11.7624L20 9.216L24 11.7624L20 14.3088L24 16.8553L20 19.4017L16 16.8553Z" fill="white"/>
</svg>
