<svg width="32" height="32" viewBox="0 0 32 32" fill="none" xmlns="http://www.w3.org/2000/svg">
<path d="M0 16C0 24.8366 7.16344 32 16 32C24.8366 32 32 24.8366 32 16C32 7.16344 24.8366 0 16 0C7.16344 0 0 7.16344 0 16Z" fill="#FC6D26"/>
<path fill-rule="evenodd" clip-rule="evenodd" d="M23.9525 16.8631L23.1133 14.2845C23.1088 14.2608 23.102 14.2375 23.093 14.2151L21.4093 9.03245C21.3645 8.89874 21.2785 8.78261 21.1638 8.70064C21.049 8.61868 20.9113 8.57506 20.7702 8.57602C20.6296 8.57516 20.4924 8.61939 20.3787 8.70221C20.2651 8.78503 20.1809 8.9021 20.1387 9.03622L18.5339 13.9749H13.4687L11.8615 9.03622C11.8194 8.90256 11.7357 8.78584 11.6226 8.70306C11.5095 8.62028 11.3729 8.57577 11.2328 8.57602H11.229C11.0879 8.57604 10.9503 8.62057 10.8359 8.70328C10.7215 8.78598 10.6361 8.90266 10.5918 9.0367L8.90672 14.2255C8.90672 14.2283 8.90537 14.2308 8.90397 14.2334L8.90153 14.2387L8.04719 16.8636C7.98441 17.0561 7.98426 17.2635 8.04679 17.4561C8.10929 17.6487 8.23121 17.8165 8.39506 17.9355L15.7764 23.299C15.8413 23.346 15.9196 23.3711 15.9998 23.3707C16.08 23.3702 16.1579 23.3443 16.2224 23.2966L23.6051 17.9355C23.7691 17.8165 23.891 17.6486 23.9534 17.4559C24.0158 17.2631 24.0155 17.0556 23.9525 16.8631ZM12.6743 13.9749L11.2257 9.5224L9.7823 13.9749H12.6743ZM22.2226 13.9749L20.7768 9.5224L19.3287 13.9749H22.2226ZM12.9193 14.7329L14.9768 21.0654L10.0377 14.7329H12.9193ZM17.0258 21.0668L18.9988 14.9958L19.0837 14.7329H21.9677L17.4992 20.4574L17.0258 21.0668ZM13.7146 14.7301H18.2889L16.0001 21.7687L13.7146 14.7301ZM8.83924 17.3247C8.80442 17.2994 8.77854 17.2637 8.7653 17.2227C8.75205 17.1818 8.75217 17.1376 8.7656 17.0967L9.39997 15.1473L14.0526 21.1121L8.83924 17.3247ZM17.9476 21.1107L23.1614 17.3247C23.1963 17.2993 23.2221 17.263 23.2353 17.222C23.2484 17.1809 23.2482 17.1367 23.2346 17.0958L22.6002 15.1473L17.9651 21.0881L17.9476 21.1107Z" fill="white"/>
</svg>
