<svg width="32" height="32" viewBox="0 0 32 32" fill="none" xmlns="http://www.w3.org/2000/svg">
<path d="M32 16C32 7.16344 24.8366 0 16 0C7.16344 0 0 7.16344 0 16C0 24.8366 7.16344 32 16 32C24.8366 32 32 24.8366 32 16Z" fill="white"/>
<path d="M23.1251 12.0066H8.35609C8.00518 12.0066 7.7207 12.2911 7.7207 12.642V23.3647C7.7207 23.7156 8.00518 24.0001 8.35609 24.0001H23.1251C23.476 24.0001 23.7605 23.7156 23.7605 23.3647V12.642C23.7605 12.2911 23.476 12.0066 23.1251 12.0066Z" fill="#4989F5"/>
<path d="M22.9396 11.9164H8.52356C8.07699 11.9164 7.72949 15.3724 7.72949 15.819L15.6241 24H22.9396C23.3875 23.9988 23.7503 23.6359 23.7515 23.188V12.7282C23.7502 12.2803 23.3874 11.9176 22.9396 11.9164V11.9164Z" fill="url(#paint0_linear)"/>
<path d="M11.3828 14.0151H15.9656V8.00024H12.069L11.3828 14.0151Z" fill="#3C4BA6"/>
<path d="M20.5486 14.0151H15.9658V8.00024H19.8624L20.5486 14.0151ZM23.7604 9.14043L23.7661 9.16093C23.7647 9.1537 23.7619 9.14698 23.7604 9.14043Z" fill="#7BABF7"/>
<path d="M23.7664 9.16069L23.7608 9.14019C23.6155 8.47487 23.0266 8.00043 22.3456 8H19.8628L20.5485 14.015H25.1313L23.7664 9.16069Z" fill="#3F51B5"/>
<path d="M8.1717 9.14038L8.16602 9.16088C8.16739 9.15365 8.17015 9.14693 8.1717 9.14038Z" fill="#7BABF7"/>
<path d="M8.16551 9.16069L8.1712 9.14019C8.31649 8.47487 8.90536 8.00043 9.58635 8H12.0693L11.3826 14.015H6.7998L8.16551 9.16069Z" fill="#7BABF7"/>
<path fill-rule="evenodd" clip-rule="evenodd" d="M11.3826 14.0126C11.3826 15.276 10.3567 16.3003 9.0912 16.3003C7.82571 16.3003 6.7998 15.276 6.7998 14.0126H11.3826Z" fill="#709BE0"/>
<path fill-rule="evenodd" clip-rule="evenodd" d="M15.9656 14.0126C15.9656 15.276 14.9397 16.3003 13.6742 16.3003C12.4087 16.3003 11.3828 15.276 11.3828 14.0126H15.9656Z" fill="#3C4BA6"/>
<path fill-rule="evenodd" clip-rule="evenodd" d="M20.5481 14.0126C20.5481 15.276 19.5222 16.3003 18.2567 16.3003C16.9912 16.3003 15.9653 15.276 15.9653 14.0126H20.5481Z" fill="#709BE0"/>
<path fill-rule="evenodd" clip-rule="evenodd" d="M25.1311 14.0126C25.1311 15.276 24.1052 16.3003 22.8397 16.3003C21.5742 16.3003 20.5483 15.276 20.5483 14.0126H25.1311Z" fill="#3C4BA6"/>
<path d="M22.8409 20.218C22.8328 20.109 22.8193 20.0094 22.8002 19.8822H20.3021C20.3021 20.2316 20.3021 20.6129 20.3007 20.9625H21.7479C21.7172 21.1254 21.6545 21.2806 21.5636 21.4193C21.4727 21.5579 21.3553 21.6772 21.2181 21.7703C21.2181 21.7703 21.2181 21.7643 21.2171 21.7641C21.04 21.8804 20.8404 21.9583 20.6313 21.9927C20.4217 22.0311 20.2068 22.0302 19.9975 21.99C19.785 21.946 19.5838 21.8588 19.4064 21.7338C19.1445 21.5481 18.9426 21.2901 18.8252 20.9913C18.8163 20.968 18.808 20.9446 18.7996 20.9208V20.9182L18.8018 20.9165C18.688 20.5823 18.6877 20.2199 18.801 19.8855C18.8808 19.651 19.0121 19.4373 19.1853 19.2601C19.5917 18.8398 20.1989 18.6817 20.7586 18.8504C20.9733 18.9163 21.1694 19.0317 21.3311 19.1874L21.8194 18.6992C21.9055 18.6122 21.995 18.5279 22.0778 18.438C21.8303 18.2071 21.5397 18.0271 21.2226 17.9084C20.6456 17.6991 20.0144 17.6936 19.4338 17.8927C19.4135 17.8996 19.3934 17.9068 19.3735 17.9142C18.7471 18.1497 18.2318 18.6115 17.9294 19.2084C17.8226 19.4197 17.7448 19.6445 17.6982 19.8766C17.4216 21.2509 18.2602 22.6037 19.6141 22.9674C20.0567 23.0859 20.5273 23.083 20.9733 22.9817C21.3786 22.8902 21.7533 22.6954 22.0611 22.4164C22.3823 22.1209 22.6124 21.7273 22.733 21.3091C22.8339 20.9548 22.8704 20.5853 22.8409 20.218Z" fill="white"/>
<defs>
<linearGradient id="paint0_linear" x1="7.72949" y1="17.9581" x2="23.7514" y2="17.9581" gradientUnits="userSpaceOnUse">
<stop offset="0.03" stop-color="#4079D8"/>
<stop offset="1" stop-color="#4989F5"/>
</linearGradient>
</defs>
</svg>
