<svg width="32" height="32" viewBox="0 0 32 32" fill="none" xmlns="http://www.w3.org/2000/svg">
<path d="M0 16C0 24.8366 7.16344 32 16 32C24.8366 32 32 24.8366 32 16C32 7.16344 24.8366 0 16 0C7.16344 0 0 7.16344 0 16Z" fill="#0078D7"/>
<path d="M16 20.8C13.3 20.8 12.1 19.4 12.1 18.4C12.1 18.2 12.2 17.9 12.4 17.8C12.6 17.6 12.8 17.6 13 17.6C14.1 17.6 13.8 19.3 16 19.3C17.1 19.3 17.7 18.6 17.7 18C17.7 17.6 17.5 17.2 16.8 17L14.4 16.4C12.5 15.9 12.2 14.8 12.2 13.9C12.2 11.8 14.1 11.1 15.9 11.1C17.5 11.1 19.5 12 19.5 13.2C19.5 13.7 19.1 14 18.5 14C17.5 14 17.7 12.6 15.7 12.6C14.7 12.6 14.2 13.1 14.2 13.7C14.2 14.3 15 14.6 15.6 14.7L17.4 15.1C19.3 15.5 19.8 16.7 19.8 17.7C19.8 19.6 18.5 20.8 16 20.8ZM23.4 17.3C23.5 16.9 23.5 16.4 23.5 16C23.5 13.8 22.5 11.7 20.8 10.2C19.1 8.7 16.8 8.2 14.6 8.5C14 8.2 13.2 8 12.4 8C10.8 8 9.30002 8.9 8.50002 10.3C7.70002 11.7 7.70002 13.4 8.50002 14.8C8.10002 17.2 8.8 19.7 10.6 21.5C12.3 23.2 14.8 24 17.2 23.6C17.9 24 18.6 24.2 19.4 24.2C21 24.2 22.5 23.3 23.3 21.9C24.1 20.4 24.2 18.7 23.4 17.3Z" fill="white"/>
</svg>
