<svg width="46" height="46" fill="currentColor" viewBox="0 0 24 24" xmlns="http://www.w3.org/2000/svg">
  <path d="M4 6.633c.14-.056.308-.118.503-.181A9.77 9.77 0 0 1 7.5 6a9.77 9.77 0 0 1 2.997.452c.195.063.363.125.503.181v10.88A11.82 11.82 0 0 0 7.5 17c-1.46 0-2.649.248-3.5.513V6.633Zm8-1.748a9.248 9.248 0 0 0-.888-.337A11.769 11.769 0 0 0 7.5 4c-1.526 0-2.755.271-3.612.548-.341.11-.675.24-1.001.39-.121.055-.24.115-.357.18l-.025.013-.009.005-.003.002h-.001c-.002.002-.247.147-.002.002A1 1 0 0 0 2 6v13a1 1 0 0 0 1.51.86l-.005.003h.001l.002-.001.001-.001.037-.02c.037-.02.098-.05.182-.09.17-.078.43-.188.775-.3A9.773 9.773 0 0 1 7.5 19a9.773 9.773 0 0 1 2.997.451c.264.084.523.185.775.3.075.035.15.072.223.112L12 4.885Zm-.505 14.978h-.001l-.002-.001-.001-.001c.314.185.704.185 1.018 0l.037-.02c.037-.02.098-.05.182-.09.252-.115.51-.216.775-.3A9.773 9.773 0 0 1 16.5 19a9.773 9.773 0 0 1 2.997.451c.264.084.523.185.775.3.074.034.147.071.219.11A.998.998 0 0 0 22 19V6a1 1 0 0 0-.49-.86h-.003l-.003-.004-.01-.005-.024-.014a5.87 5.87 0 0 0-.357-.18 8.8 8.8 0 0 0-1-.389A11.769 11.769 0 0 0 16.5 4c-1.525 0-2.755.271-3.612.548-.302.097-.598.21-.888.337l-.505 14.978ZM20 6.633v10.88A11.82 11.82 0 0 0 16.5 17c-1.46 0-2.649.248-3.5.513V6.633c.14-.056.308-.118.503-.181A9.77 9.77 0 0 1 16.5 6a9.77 9.77 0 0 1 2.997.452c.195.063.363.125.503.181Zm.49.228.005.002h-.001l-.003-.002h-.001Zm0 13 .004.002-.002-.002"></path>
</svg>