<svg width="46" height="46" fill="currentColor" viewBox="0 0 24 24" xmlns="http://www.w3.org/2000/svg">
  <path d="M19 10c0-3.224-2.18-5.94-5.146-6.752a2 2 0 0 0-3.708 0 6.956 6.956 0 0 0-1.587.655l1.492 1.491A5 5 0 0 1 17 10v2.343l2 2V10ZM3.175 17.434 5 14.697V10c0-1.05.231-2.046.646-2.94L3.293 4.707a1 1 0 1 1 1.414-1.414l16 16a1 1 0 0 1-1.414 1.414L17.586 19h-2.121a3.5 3.5 0 0 1-6.93 0H4.013a.999.999 0 0 1-.838-1.565v-.001ZM5.87 17h9.717l-8.39-8.39A5.03 5.03 0 0 0 7 10v5a1 1 0 0 1-.168.555L5.87 17Zm4.716 2a1.5 1.5 0 0 0 2.83 0h-2.83Z"></path>
</svg>