<?xml version="1.0" encoding="UTF-8"?>
<svg id="Camada_2" data-name="Camada 2" xmlns="http://www.w3.org/2000/svg" viewBox="0 0 133.77 87.01">
  <g id="g3850">
    <path id="path3055" d="m16.21,1.5S10.09-.1,5.7,5.75C1.31,11.47.25,22.24.25,22.38s9.84-4.26,14.23-9.97c4.39-5.72,1.86-10.91,1.73-10.91h0Z" style="fill: #7c8c03; fill-rule: evenodd; stroke: #336535; stroke-miterlimit: 1.59; stroke-width: .5px;"/>
    <path id="path3062" d="m15.54,2.3L2.78,19.05" style="fill: none; stroke: #336535; stroke-linecap: round; stroke-linejoin: round; stroke-width: .5px;"/>
    <path id="path3068" d="m7.43,6.68c3.46-.13,5.32,1.46,6.12,4.65" style="fill: none; stroke: #336535; stroke-linecap: round; stroke-linejoin: round; stroke-width: .5px;"/>
    <path id="path3070" d="m7.43,6.68c3.46-.13,5.32,1.46,6.12,4.65" style="fill: none; stroke: #336535; stroke-linecap: round; stroke-linejoin: round; stroke-width: .5px;"/>
    <path id="path3072" d="m9.83,4.29c2.93-.13,4.65,1.33,5.32,4.12" style="fill: none; stroke: #336535; stroke-linecap: round; stroke-linejoin: round; stroke-width: .5px;"/>
    <path id="path3074" d="m5.7,9.48c3.19-.13,4.92,1.33,5.59,4.26" style="fill: none; stroke: #336535; stroke-linecap: round; stroke-linejoin: round; stroke-width: .5px;"/>
    <path id="path3076" d="m4.24,12.8c2.39-.13,3.72,1.06,4.26,3.19" style="fill: none; stroke: #336535; stroke-linecap: round; stroke-linejoin: round; stroke-width: .5px;"/>
    <path id="path3078" d="m3.71,15.59c1.2,0,1.86.53,2.26,1.73" style="fill: none; stroke: #336535; stroke-linecap: round; stroke-linejoin: round; stroke-width: .5px;"/>
    <path id="path3848" d="m16.21,1.36c1.33-1.6,3.86-1.33,5.32-.13" style="fill: none; stroke: #336535; stroke-miterlimit: 1.59; stroke-width: .5px;"/>
  </g>
  <g>
    <path d="m61.29,12.14c-1.33-2.53-3.32-4.65-5.85-6.38-2.66-1.6-5.98-2.39-9.97-2.39-2.26,0-4.65.27-7.18.93-2.39.53-4.65,1.46-6.78,2.66-.27.13-.53.27-.8.53h0l1.33,5.05c.13-.13.4-.13.53-.27,1.33-.53,2.66-.93,3.86-1.2,1.46-.27,2.66-.53,3.99-.53,2.66,0,4.92.53,6.65,1.6s3.06,2.53,3.99,4.26c.8,1.73,1.33,3.72,1.33,5.85s-.27,4.26-1.06,6.38-1.73,4.12-3.32,5.98-3.59,3.32-6.25,4.39-5.85,1.6-9.71,1.6l.27,3.59c.93.13,1.73.27,2.53.27s1.6.13,2.39.13c4.26,0,7.98-.66,11.3-2.13s5.98-3.32,8.11-5.72,3.86-4.92,4.92-7.85c1.06-2.79,1.73-5.59,1.73-8.51,0-2.79-.66-5.72-1.99-8.25Zm-29.92-5.19c-.27.13-.53.27-.8.53h0l1.33,5.05c.13-.13.4-.13.53-.27,0-1.99-.27-3.86-1.06-5.32Z" style="fill: #7c8c03;"/>
    <path d="m32.57,12.27v.27c0,2.53-.27,5.45-.66,9.04-.53,3.72-1.06,7.85-1.73,12.37s-1.2,9.44-1.73,14.63-.66,10.37-.66,15.83c0,1.33,0,2.66.13,4.12s.27,2.93.4,4.39c-.66,0-1.33.13-1.99.13h-1.73c-3.32,0-5.59-.53-7.05-1.73-1.46-1.2-2.13-3.06-2.13-5.72h0c0-2.13.27-4.79.66-7.98s.93-6.78,1.46-10.77c.53-3.99,1.2-7.98,1.73-12.24.53-4.26,1.06-8.51,1.46-12.77.4-4.26.66-8.38.66-12.24,0-2.26-.13-4.12-.27-5.72-.13-1.46-.4-2.66-.8-3.46,0-.13-.13-.13-.13-.27,2.66.13,5.05.8,6.92,1.86,1.86,1.06,3.32,2.39,4.26,4.26.13.27.27.53.4.8-.27.13-.53.27-.8.53h0l1.33,5.05c-.13-.27,0-.4.27-.4Z" style="fill: #7c8c03;"/>
  </g>
  <g>
    <path d="m45.6,57.09c.8-2.26,1.6-3.99,2.39-5.32s1.73-2.26,2.66-2.93,1.6-.93,2.39-.93,1.46.27,1.99.66.93,1.06,1.2,1.73.4,1.46.4,2.39-.13,1.86-.53,2.79c-.27.93-.8,1.73-1.6,2.39-.66.66-1.6.93-2.79.93h-.8c-.27,0-.53-.13-.66-.27.27-.4.53-.93.8-1.6.27-.66.4-1.33.53-2.13,0-.53,0-.93-.13-1.2s-.4-.53-.93-.53-1.06.4-1.73,1.06c-.66.8-1.33,1.86-1.86,3.19s-1.06,3.06-1.46,5.05-.53,4.26-.53,6.65c0,.53,0,1.2.13,1.73,0,.66.13,1.2.13,1.86h-1.73c-1.6,0-2.79-.27-3.59-.93-.66-.53-1.06-1.6-1.06-2.93,0-.66.13-1.6.27-2.66.13-1.2.4-2.53.66-3.99s.4-2.93.66-4.52.27-3.06.27-4.52c0-1.06,0-2.26-.13-3.32s-.27-2.13-.53-3.19c2.26.66,3.72,1.73,4.52,2.93.8,1.33,1.2,2.79,1.2,4.39v1.06c0,.4,0,.93-.13,1.46v.66h0Z" style="fill: #f29f05;"/>
    <path d="m67.14,73.71c-1.06,0-2.26-.27-3.32-.66s-2.13-1.06-3.06-1.99-1.6-2.13-2.13-3.59c-.53-1.46-.8-3.06-.8-5.05,0-2.39.4-4.65,1.2-6.65s1.99-3.86,3.32-5.32c1.46-1.46,3.19-2.39,5.19-2.93.27,0,.66.13.93.27s.4.4.4.66c-1.06.66-2.13,1.6-3.06,2.79s-1.6,2.79-1.99,4.65l.27.13c.8-1.99,1.73-3.59,2.93-4.65,1.06-1.06,2.26-1.86,3.46-2.39s2.26-.66,3.19-.66c1.33,0,2.39.4,3.32,1.06s1.73,1.86,2.39,3.19c.53,1.33.93,3.06.93,5.05,0,1.86-.27,3.72-.66,5.59s-1.2,3.59-2.26,5.19-2.39,2.93-3.99,3.86-3.86,1.46-6.25,1.46h0Zm1.06-3.19c1.06,0,1.99-.4,2.79-1.06s1.46-1.73,1.99-2.93.93-2.53,1.33-3.99.4-2.93.4-4.39c0-2.53-.27-4.39-.93-5.32s-1.46-1.6-2.39-1.6-1.86.4-2.79,1.06c-.93.66-1.6,1.6-2.26,2.79s-1.2,2.39-1.6,3.86-.53,2.79-.53,4.12.13,2.66.4,3.72.66,1.99,1.33,2.66c.4.8,1.2,1.06,2.26,1.06h0Z" style="fill: #f29f05;"/>
    <path d="m90.68,63.2c0,2.39.4,4.12,1.06,5.32s1.73,1.86,3.19,1.86c1.06,0,2.13-.4,3.32-1.06,1.06-.66,2.13-1.73,2.93-3.19.53.13.93.27,1.2.53s.4.66.4,1.06c-.93,1.6-1.86,2.66-3.06,3.59-1.2.8-2.26,1.46-3.46,1.73s-2.26.53-3.19.53c-1.46,0-2.79-.4-4.12-1.06s-2.39-1.86-3.19-3.32-1.2-3.46-1.2-5.72c0-1.99.27-3.99.8-5.85.53-1.86,1.46-3.46,2.53-4.92,1.06-1.46,2.39-2.53,4.12-3.46,1.6-.8,3.46-1.2,5.59-1.2,1.6,0,2.93.27,3.86.8s1.73,1.2,2.13,2.13c.4.8.66,1.73.66,2.66s-.27,1.73-.66,2.66-.93,1.46-1.73,1.99c-.66.53-1.6.8-2.53.8-.27,0-.66,0-1.06-.13-.4,0-.66-.13-1.06-.27.4-.4.66-1.06,1.06-1.99s.53-1.86.66-2.79c0-.8-.13-1.6-.4-2.13-.27-.66-.93-.93-1.73-.93-.93,0-1.86.4-2.53,1.2s-1.33,1.73-1.86,2.93-.93,2.53-1.2,3.99c-.4,1.46-.53,2.79-.53,4.26h0Zm2.13,11.57c1.86.13,3.19.53,4.26,1.46s1.46,1.99,1.46,3.46c0,1.73-.53,3.19-1.6,4.52-1.06,1.33-2.53,2.26-4.26,2.79-.66-.27-1.33-.8-1.73-1.33-.4-.66-.66-1.33-.66-2.26,1.33-.27,2.39-.66,3.19-1.46s1.2-1.6,1.2-2.53c0-1.33-.8-2.39-2.53-2.93,0-.27.13-.53.27-.8,0-.4.27-.66.4-.93h0Z" style="fill: #f29f05;"/>
    <path d="m123.66,65.6c-.53,1.6-1.33,2.93-2.39,4.12s-2.26,2.13-3.46,2.79-2.53,1.06-3.86,1.06c-1.86,0-3.46-.8-4.52-2.26-1.06-1.46-1.6-3.59-1.6-6.12,0-2.13.27-4.26,1.06-6.12s1.6-3.72,2.79-5.19c1.2-1.46,2.53-2.66,3.99-3.59s3.06-1.33,4.79-1.33c.66,0,1.33,0,1.99.27s1.06.4,1.46.66c-1.33.4-2.53,1.2-3.72,2.26s-2.13,2.26-3.06,3.59-1.6,2.93-2.13,4.39c-.53,1.6-.8,3.19-.8,4.79,0,1.46.27,2.66.8,3.46s1.2,1.2,2.13,1.2c1.06,0,1.99-.4,2.93-1.33s1.73-2.13,2.53-3.72,1.33-3.32,1.73-5.32.66-3.99.66-6.12c0-.93,0-1.73-.13-2.53,0-.8-.13-1.46-.27-1.99.27,0,.53-.13.8-.13h1.2c1.46,0,2.66.27,3.32.93s1.06,1.46,1.06,2.66c0,.8-.13,1.73-.27,2.93s-.4,2.53-.66,3.99-.53,3.06-.8,4.65-.27,3.19-.27,4.79c0,1.2.13,2.26.27,3.19.27.93.53,1.86,1.06,3.06-2.26-.4-3.86-1.33-4.79-2.53s-1.46-3.06-1.46-5.72v-.66l-.4-.13h0Z" style="fill: #f29f05;"/>
  </g>
  <g>
    <path d="m71.67,44.05c-1.73,0-3.19-.4-4.52-1.33s-2.26-2.13-2.93-3.72-1.06-3.46-1.06-5.59.27-4.12,1.06-5.98,1.6-3.46,2.79-4.79,2.66-2.39,4.26-3.19c1.6-.8,3.32-1.2,5.32-1.2,2.13,0,3.86.53,5.05,1.6s1.86,2.66,1.86,4.65c0,1.6-.4,2.93-1.2,4.26s-1.99,2.13-3.46,2.79-3.19,1.06-5.05,1.06c-.8,0-1.6,0-2.26-.13-.8-.13-1.46-.27-2.13-.4l.13-1.73h1.06c1.46,0,2.79-.27,3.86-.8,1.06-.53,1.99-1.33,2.53-2.26s.93-2.13.93-3.46c0-.8-.27-1.46-.66-1.99s-.93-.8-1.6-.8c-.93,0-1.86.4-2.53,1.2s-1.33,1.86-1.86,3.06c-.53,1.33-.93,2.66-1.06,4.12-.27,1.46-.4,2.79-.4,4.12,0,2.39.4,4.12,1.06,5.32s1.73,1.86,3.06,1.86c2.53,0,4.65-1.46,6.65-4.26,1.06.27,1.6.8,1.6,1.6-1.2,1.86-2.66,3.32-4.39,4.26-2.13,1.2-3.99,1.6-6.12,1.73h0Z" style="fill: #7c8c03;"/>
    <path d="m101.99,36.34c-.66,1.6-1.46,2.93-2.39,3.99-1.06,1.06-2.13,1.99-3.32,2.53-1.2.53-2.39.93-3.72.93-1.06,0-2.13-.27-3.19-.93-.93-.66-1.73-1.6-2.26-2.79s-.93-2.93-.93-4.92c0-2.39.27-4.65,1.06-6.65s1.6-3.72,2.79-5.19,2.66-2.66,4.26-3.46,3.32-1.2,5.32-1.2c.66,0,1.33.13,1.99.13.66.13,1.2.27,1.6.53-1.86.53-3.46,1.33-4.79,2.39s-2.39,2.39-3.19,3.86-1.46,2.93-1.86,4.52-.53,2.93-.53,4.26c0,.93.13,1.86.27,2.66.27.8.53,1.33,1.06,1.86.27.66.8.93,1.6.93,1.06,0,2.13-.4,2.93-1.33s1.6-2.13,2.26-3.59,1.2-3.19,1.6-5.19.8-3.86,1.06-5.98c.27-2.13.53-4.12.66-6.12s.27-3.86.4-5.59c.13-1.73.13-3.06.13-4.26s0-2.13-.13-3.19c0-1.06-.13-1.86-.27-2.66,1.46.27,2.66.93,3.46,1.73s1.33,1.86,1.73,3.06.53,2.66.53,4.12c0,1.73-.13,3.59-.4,5.72s-.66,4.26-1.06,6.65c-.4,2.39-.8,4.79-1.06,7.18-.27,2.53-.4,5.05-.4,7.58,0,1.99.13,4.12.4,6.12-1.46-.4-2.53-.93-3.32-1.73-.8-.8-1.33-1.6-1.6-2.66s-.4-2.13-.53-3.32h-.13Z" style="fill: #7c8c03;"/>
    <path d="m121.94,44.05c-1.73,0-3.19-.4-4.52-1.33s-2.26-2.13-2.93-3.72-1.06-3.46-1.06-5.59.27-4.12,1.06-5.98,1.6-3.46,2.79-4.79,2.66-2.39,4.26-3.19c1.6-.8,3.32-1.2,5.32-1.2,2.13,0,3.86.53,5.05,1.6s1.86,2.66,1.86,4.65c0,1.6-.4,2.93-1.2,4.26s-1.99,2.13-3.46,2.79-3.19,1.06-5.05,1.06c-.8,0-1.6,0-2.26-.13-.8-.13-1.46-.27-2.13-.4l.13-1.73h1.06c1.46,0,2.79-.27,3.86-.8s1.99-1.33,2.53-2.26.93-2.13.93-3.46c0-.8-.27-1.46-.66-1.99s-.93-.8-1.6-.8c-.93,0-1.86.4-2.53,1.2-.8.8-1.33,1.86-1.86,3.06-.53,1.33-.93,2.66-1.06,4.12-.27,1.46-.4,2.79-.4,4.12,0,2.39.4,4.12,1.06,5.32s1.73,1.86,3.06,1.86c2.53,0,4.79-1.46,6.65-4.26,1.06.27,1.6.8,1.6,1.6-1.2,1.86-2.66,3.32-4.39,4.26-2.13,1.2-3.99,1.6-6.12,1.73h0Z" style="fill: #7c8c03;"/>
  </g>
</svg>