<?xml version="1.0" encoding="utf-8"?>
<!-- Generator: Adobe Illustrator 27.3.1, SVG Export Plug-In . SVG Version: 6.00 Build 0)  -->
<svg version="1.1" id="Camada_2_00000145781207671567251560000005260203164055437974_"
	 xmlns="http://www.w3.org/2000/svg" xmlns:xlink="http://www.w3.org/1999/xlink" x="0px" y="0px" viewBox="0 0 101.5 84.8"
	 style="enable-background:new 0 0 101.5 84.8;" xml:space="preserve">
<style type="text/css">
	.st0{enable-background:new    ;}
	.st1{fill:#336535;}
	.st2{fill:#CD6B03;}
	.st3{fill-rule:evenodd;clip-rule:evenodd;fill:#55963D;stroke:#336535;stroke-width:0.5;stroke-miterlimit:1.59;}
	.st4{fill:none;stroke:#336535;stroke-width:0.5;stroke-linecap:round;stroke-linejoin:round;}
	.st5{fill:none;stroke:#336535;stroke-width:0.5;stroke-miterlimit:1.59;}
</style>
<g id="Camada_1-2">
	<g>
		<g class="st0">
			<path class="st1" d="M11.4,57.8c0-1.6,0.2-3.6,0.5-6c0.3-2.4,0.7-5.1,1.1-8.1c0.4-2.9,0.9-6,1.3-9.2c0.4-3.2,0.8-6.4,1.1-9.6
				c0.3-3.2,0.5-6.3,0.5-9.2c0-1.6-0.1-3.1-0.2-4.3s-0.4-2.2-0.7-2.8c2,0.1,3.8,0.6,5.2,1.4c1.4,0.8,2.5,1.8,3.3,3.2
				c0.8,1.3,1.1,2.9,1.1,4.8c0,1.8-0.2,4.1-0.6,6.8c-0.4,2.8-0.8,5.9-1.3,9.3c-0.5,3.4-0.9,7.1-1.3,11c-0.4,3.9-0.6,7.8-0.6,11.9
				c0,1,0,2,0.1,3.1c0,1.1,0.2,2.2,0.3,3.3c-0.5,0-1,0.1-1.5,0.1c-0.5,0-0.9,0-1.3,0c-2.5,0-4.3-0.4-5.3-1.3
				C12,61.2,11.4,59.8,11.4,57.8z M23,14.1c1.9-1.1,3.8-1.9,5.8-2.4c2-0.5,3.8-0.7,5.4-0.7c3,0,5.5,0.6,7.5,1.8
				c2,1.2,3.4,2.8,4.4,4.7c1,2,1.5,4.1,1.5,6.4c0,2.1-0.4,4.3-1.3,6.4c-0.8,2.1-2.1,4.1-3.7,5.9c-1.6,1.8-3.7,3.2-6.1,4.3
				C34,41.5,31.2,42,28,42c-0.6,0-1.2,0-1.8-0.1c-0.6,0-1.2-0.1-1.9-0.2L24.1,39c2.9,0,5.4-0.4,7.4-1.2c2-0.8,3.5-1.9,4.7-3.3
				c1.1-1.4,2-2.9,2.5-4.5c0.5-1.6,0.7-3.2,0.7-4.8c0-1.6-0.3-3-1-4.4c-0.7-1.3-1.6-2.4-3-3.2c-1.3-0.8-3-1.2-5-1.2
				c-0.9,0-1.9,0.1-3,0.4c-1.1,0.2-2.2,0.6-3.4,1.1L23,14.1z"/>
		</g>
		<g class="st0">
			<path class="st2" d="M34.3,51.4c0.6-1.7,1.2-3,1.8-4c0.7-1,1.3-1.7,2-2.2s1.2-0.7,1.8-0.7c0.6,0,1.1,0.2,1.5,0.5
				c0.4,0.3,0.7,0.8,0.9,1.4c0.2,0.6,0.3,1.1,0.3,1.8c0,0.7-0.1,1.4-0.4,2.1c-0.2,0.7-0.6,1.3-1.2,1.8c-0.5,0.5-1.2,0.7-2.1,0.7
				c-0.2,0-0.4,0-0.6,0c-0.2,0-0.4-0.1-0.6-0.2c0.2-0.3,0.4-0.7,0.6-1.2c0.2-0.5,0.3-1.1,0.4-1.6c0-0.4,0-0.7-0.1-0.9
				c-0.1-0.2-0.4-0.4-0.7-0.4c-0.4,0-0.8,0.3-1.3,0.8c-0.5,0.6-1,1.4-1.4,2.4c-0.4,1.1-0.8,2.3-1.1,3.8c-0.3,1.5-0.4,3.2-0.4,5
				c0,0.4,0,0.9,0.1,1.3c0,0.5,0.1,0.9,0.1,1.4c-0.3,0-0.5,0-0.7,0c-0.2,0-0.4,0-0.6,0c-1.2,0-2.1-0.2-2.7-0.7
				c-0.5-0.4-0.8-1.1-0.8-2.1c0-0.5,0.1-1.2,0.2-2c0.1-0.9,0.3-1.9,0.5-3c0.2-1.1,0.3-2.2,0.5-3.4c0.1-1.2,0.2-2.3,0.2-3.4
				c0-0.8,0-1.7-0.1-2.5c-0.1-0.8-0.2-1.6-0.4-2.4c1.7,0.5,2.8,1.3,3.4,2.2c0.6,1,0.9,2.1,0.9,3.3c0,0.2,0,0.5,0,0.8
				c0,0.3-0.1,0.7-0.1,1.1L34.3,51.4z"/>
			<path class="st2" d="M50.5,63.8c-0.8,0-1.7-0.2-2.5-0.5c-0.8-0.3-1.6-0.9-2.3-1.5c-0.7-0.7-1.2-1.6-1.6-2.7
				c-0.4-1.1-0.6-2.3-0.6-3.8c0-1.8,0.3-3.5,0.9-5s1.5-2.9,2.6-4c1.1-1.1,2.4-1.8,3.9-2.2c0.2,0,0.5,0.1,0.7,0.2s0.3,0.3,0.3,0.5
				c-0.8,0.5-1.6,1.2-2.3,2.1S48.3,49,48,50.4l0.2,0.1c0.6-1.5,1.3-2.7,2.2-3.5c0.8-0.8,1.7-1.4,2.6-1.8c0.9-0.3,1.7-0.5,2.4-0.5
				c1,0,1.8,0.3,2.6,0.8s1.3,1.4,1.8,2.4c0.4,1.1,0.7,2.3,0.7,3.8c0,1.4-0.2,2.8-0.6,4.2c-0.4,1.4-0.9,2.7-1.7,3.9
				c-0.8,1.2-1.8,2.2-3,2.9C53.8,63.5,52.3,63.8,50.5,63.8z M51.3,61.5c0.8,0,1.5-0.3,2.1-0.8s1.1-1.3,1.5-2.2c0.4-0.9,0.7-1.9,1-3
				s0.3-2.2,0.3-3.3c0-1.9-0.2-3.3-0.7-4c-0.5-0.8-1.1-1.2-1.8-1.2c-0.7,0-1.4,0.3-2.1,0.8c-0.7,0.5-1.2,1.2-1.7,2.1
				c-0.5,0.9-0.9,1.8-1.2,2.9s-0.4,2.1-0.4,3.1c0,1,0.1,2,0.3,2.8s0.5,1.5,1,2C49.9,61.3,50.5,61.5,51.3,61.5z"/>
			<path class="st2" d="M68.2,56c0,1.8,0.3,3.1,0.8,4s1.3,1.4,2.4,1.4c0.8,0,1.6-0.3,2.5-0.8c0.8-0.6,1.6-1.3,2.2-2.4
				c0.4,0.1,0.7,0.2,0.9,0.4s0.3,0.5,0.3,0.8c-0.7,1.1-1.4,2-2.3,2.7c-0.9,0.6-1.7,1.1-2.6,1.3c-0.9,0.2-1.7,0.4-2.4,0.4
				c-1.1,0-2.1-0.3-3.1-0.8c-1-0.5-1.8-1.4-2.4-2.5c-0.6-1.1-0.9-2.6-0.9-4.3c0-1.5,0.2-3,0.7-4.4c0.4-1.4,1.1-2.6,1.9-3.7
				c0.8-1.1,1.8-1.9,3.1-2.6c1.2-0.6,2.6-0.9,4.2-0.9c1.2,0,2.2,0.2,2.9,0.6s1.3,0.9,1.6,1.6c0.3,0.6,0.5,1.3,0.5,2
				c0,0.7-0.2,1.3-0.5,2s-0.7,1.1-1.3,1.5c-0.5,0.4-1.2,0.6-1.9,0.6c-0.2,0-0.5,0-0.7-0.1c-0.3-0.1-0.5-0.1-0.8-0.2
				c0.3-0.3,0.5-0.8,0.8-1.5c0.3-0.7,0.4-1.4,0.5-2.1c0-0.6,0-1.2-0.3-1.6c-0.2-0.5-0.7-0.7-1.4-0.7c-0.7,0-1.4,0.3-1.9,0.9
				c-0.6,0.6-1,1.3-1.4,2.2c-0.4,0.9-0.7,1.9-0.9,3C68.3,53.9,68.2,54.9,68.2,56z M69.8,64.7c1.4,0.1,2.4,0.4,3.2,1.1
				c0.7,0.6,1.1,1.5,1.1,2.6c0,1.3-0.4,2.4-1.2,3.4c-0.8,1-1.9,1.7-3.3,2.1c-0.5-0.2-1-0.6-1.3-1c-0.3-0.5-0.5-1.1-0.5-1.7
				c1-0.2,1.8-0.5,2.4-1.1c0.6-0.6,0.9-1.2,0.9-1.9c0-1-0.6-1.8-1.9-2.2c0-0.2,0.1-0.4,0.1-0.6C69.5,65.1,69.7,64.9,69.8,64.7z"/>
			<path class="st2" d="M93,57.8c-0.4,1.1-1,2.2-1.8,3.1c-0.8,0.9-1.7,1.6-2.6,2.1s-1.9,0.8-2.9,0.8c-1.4,0-2.6-0.6-3.4-1.7
				c-0.8-1.1-1.3-2.7-1.3-4.6c0-1.6,0.2-3.2,0.7-4.6s1.2-2.8,2.1-3.9c0.9-1.1,1.9-2,3-2.7c1.1-0.7,2.3-1,3.5-1c0.5,0,1,0.1,1.5,0.2
				c0.5,0.1,0.8,0.3,1.1,0.5c-1,0.3-1.9,0.9-2.8,1.7c-0.9,0.8-1.6,1.7-2.3,2.7c-0.7,1-1.2,2.2-1.6,3.3c-0.4,1.2-0.6,2.4-0.6,3.6
				c0,1.1,0.2,2,0.6,2.6c0.4,0.6,0.9,0.9,1.6,0.9c0.8,0,1.5-0.3,2.2-1c0.7-0.7,1.4-1.6,1.9-2.8s1-2.5,1.3-4c0.3-1.5,0.5-3,0.5-4.6
				c0-0.7,0-1.3,0-1.9c0-0.6-0.1-1.1-0.1-1.5c0.2,0,0.4-0.1,0.6-0.1s0.5,0,0.9,0c1.1,0,2,0.2,2.5,0.7c0.5,0.4,0.8,1.1,0.8,2
				c0,0.6-0.1,1.3-0.2,2.2c-0.2,0.9-0.3,1.9-0.5,3c-0.2,1.1-0.4,2.3-0.6,3.5c-0.2,1.2-0.2,2.4-0.2,3.6c0,0.9,0.1,1.7,0.2,2.4
				c0.2,0.7,0.4,1.4,0.8,2.3c-1.7-0.3-2.9-1-3.6-1.9c-0.7-0.9-1.1-2.4-1.1-4.3c0-0.1,0-0.2,0-0.3c0-0.1,0-0.1,0-0.2L93,57.8z"/>
		</g>
		<g class="st0">
			<path class="st1" d="M53.9,41.5c-1.3,0-2.4-0.3-3.4-1c-1-0.7-1.7-1.6-2.2-2.8s-0.8-2.6-0.8-4.2c0-1.6,0.2-3.1,0.7-4.5
				s1.2-2.6,2.1-3.6s2-1.8,3.2-2.4c1.2-0.6,2.5-0.9,4-0.9c1.6,0,2.9,0.4,3.8,1.3c0.9,0.8,1.4,2,1.4,3.5c0,1.2-0.3,2.2-0.9,3.2
				s-1.5,1.6-2.6,2.1c-1.1,0.5-2.4,0.8-3.9,0.8c-0.6,0-1.2,0-1.7-0.1c-0.6-0.1-1.1-0.2-1.6-0.3l0.1-1.3h0.8c1.1,0,2.1-0.2,2.9-0.6
				c0.8-0.4,1.5-1,1.9-1.7c0.5-0.7,0.7-1.6,0.7-2.6c0-0.6-0.2-1.1-0.5-1.5c-0.3-0.4-0.7-0.6-1.3-0.6c-0.7,0-1.4,0.3-1.9,0.9
				c-0.6,0.6-1,1.4-1.4,2.3c-0.4,1-0.7,2-0.8,3.1c-0.2,1.1-0.3,2.1-0.3,3.1c0,1.8,0.3,3.1,0.8,4c0.5,0.9,1.3,1.4,2.3,1.4
				c1.9,0,3.5-1.1,5-3.2c0.8,0.2,1.2,0.6,1.2,1.2c-0.9,1.4-2,2.5-3.3,3.3C56.9,41.1,55.5,41.5,53.9,41.5z"/>
			<path class="st1" d="M76.7,35.8c-0.5,1.2-1.1,2.2-1.9,3c-0.8,0.8-1.6,1.5-2.5,1.9c-0.9,0.4-1.8,0.7-2.8,0.7
				c-0.8,0-1.6-0.2-2.4-0.7s-1.3-1.2-1.7-2.1s-0.7-2.2-0.7-3.7c0-1.8,0.2-3.4,0.7-4.9c0.5-1.5,1.2-2.8,2.1-3.9c0.9-1.1,2-2,3.2-2.6
				c1.2-0.6,2.5-0.9,4-0.9c0.5,0,1,0,1.5,0.1c0.5,0.1,0.9,0.2,1.2,0.4c-1.4,0.4-2.6,1-3.6,1.8c-1,0.8-1.8,1.8-2.4,2.9
				c-0.6,1.1-1.1,2.2-1.4,3.4c-0.3,1.1-0.4,2.2-0.4,3.3c0,0.7,0.1,1.4,0.2,2c0.2,0.6,0.4,1,0.8,1.4c0.3,0.3,0.8,0.5,1.4,0.5
				c0.8,0,1.5-0.3,2.2-1c0.6-0.7,1.2-1.6,1.7-2.7c0.5-1.1,0.9-2.4,1.2-3.9s0.6-2.9,0.8-4.5c0.2-1.6,0.4-3.1,0.5-4.6
				c0.1-1.5,0.2-2.9,0.3-4.2c0.1-1.3,0.1-2.4,0.1-3.2c0-0.8,0-1.6,0-2.4c0-0.7-0.1-1.4-0.2-2c1.1,0.2,2,0.7,2.6,1.3
				c0.6,0.6,1,1.4,1.3,2.3s0.4,2,0.4,3.1c0,1.3-0.1,2.7-0.3,4.3s-0.5,3.2-0.8,5c-0.3,1.8-0.5,3.6-0.8,5.4c-0.2,1.9-0.3,3.8-0.3,5.7
				c0,1.5,0.1,3.1,0.3,4.6c-1.1-0.3-1.9-0.7-2.5-1.3c-0.6-0.6-1-1.3-1.2-2c-0.2-0.8-0.4-1.6-0.4-2.5H76.7z"/>
			<path class="st1" d="M91.7,41.5c-1.3,0-2.4-0.3-3.4-1c-1-0.7-1.7-1.6-2.2-2.8s-0.8-2.6-0.8-4.2c0-1.6,0.2-3.1,0.7-4.5
				s1.2-2.6,2.1-3.6c0.9-1,2-1.8,3.2-2.4c1.2-0.6,2.5-0.9,4-0.9c1.6,0,2.9,0.4,3.8,1.3c0.9,0.8,1.4,2,1.4,3.5c0,1.2-0.3,2.2-0.9,3.2
				s-1.5,1.6-2.6,2.1c-1.1,0.5-2.4,0.8-3.9,0.8c-0.6,0-1.2,0-1.7-0.1c-0.6-0.1-1.1-0.2-1.6-0.3l0.1-1.3h0.8c1.1,0,2.1-0.2,2.9-0.6
				c0.8-0.4,1.5-1,1.9-1.7c0.5-0.7,0.7-1.6,0.7-2.6c0-0.6-0.2-1.1-0.5-1.5c-0.3-0.4-0.7-0.6-1.3-0.6c-0.7,0-1.4,0.3-1.9,0.9
				c-0.6,0.6-1,1.4-1.4,2.3c-0.4,1-0.7,2-0.8,3.1c-0.2,1.1-0.3,2.1-0.3,3.1c0,1.8,0.3,3.1,0.8,4c0.5,0.9,1.3,1.4,2.3,1.4
				c1.9,0,3.5-1.1,5-3.2c0.8,0.2,1.2,0.6,1.2,1.2c-0.9,1.4-2,2.5-3.3,3.3C94.7,41.1,93.3,41.5,91.7,41.5z"/>
		</g>
		<g id="g3850">
			<path id="path3055" class="st3" d="M12.2,9.6c0,0-4.6-1.2-7.9,3.2C1,17.1,0.2,25.2,0.2,25.2s7.4-3.2,10.7-7.5
				C14.2,13.4,12.3,9.6,12.2,9.6C12.2,9.6,12.2,9.6,12.2,9.6z"/>
			<path id="path3062" class="st4" d="M11.7,10.1L2.1,22.8"/>
			<path id="path3068" class="st4" d="M5.6,13.4c2.6-0.1,4.1,1.2,4.7,3.6"/>
			<path id="path3070" class="st4" d="M5.6,13.4c2.6-0.1,4.1,1.2,4.7,3.6"/>
			<path id="path3072" class="st4" d="M7.4,11.7c2.2-0.1,3.5,1,4,3.1"/>
			<path id="path3074" class="st4" d="M4.3,15.6c2.3-0.1,3.7,1.1,4.2,3.2"/>
			<path id="path3076" class="st4" d="M3.2,18C5,18,6,18.9,6.4,20.5"/>
			<path id="path3078" class="st4" d="M2.8,20.2c0.9,0,1.4,0.5,1.7,1.3"/>
			<path id="path3848" class="st5" d="M12.2,9.5c1-1.2,2.9-1,4-0.1"/>
		</g>
	</g>
</g>
</svg>
