<?xml version="1.0" encoding="UTF-8"?>
<svg xmlns="http://www.w3.org/2000/svg" xmlns:xlink="http://www.w3.org/1999/xlink" viewBox="0 0 200 201.41">
  <defs>
    <clipPath id="clippath">
      <circle cx="100" cy="100" r="100" transform="translate(-14.78 182.61) rotate(-80.74)" style="fill: none;"/>
    </clipPath>
  </defs>
  <g style="isolation: isolate;">
    <g id="Camada_1" data-name="Camada 1">
      <circle cx="100" cy="100" r="100" transform="translate(-14.78 182.61) rotate(-80.74)" style="fill: #1db2a8;"/>
      <g style="clip-path: url(#clippath);">
        <g>
          <path d="m54.23,91.58c-.56.82-2.28,70.36,9.94,84.6h69.17s18.89-53.39,6.02-84.6H53.82" style="fill: #190900;"/>
          <g>
            <rect x="81.96" y="129.81" width="38.3" height="25.8" style="fill: #f9c2a7;"/>
            <path d="m91.25,148.47c5.77,2.29,12.1,3.68,18.31,3.73,3.56.03,7.18-.42,10.69-1.04v-21.35h-38.3v13.35c2.69,2.37,6.12,4.06,9.29,5.32Z" style="fill: #ededed; mix-blend-mode: multiply;"/>
            <g>
              <path d="m142.56,81.26c.13-.95,1.74-2.5,2.45-3.02,1.57-1.16,3.16.03,3.62,1.55.41,1.35.45,2.88.55,4.28.24,3.43-.28,6.79-1.82,9.88-1.03,2.06-2.64,3.76-4.56,5.04,0,0-2.06,1.02-2.47-1.33,0,0,2.24-16.39,2.24-16.4Z" style="fill: #f9c2a7;"/>
              <path d="m142.23,83.32c.09-.68,1.25-1.78,1.75-2.16,1.13-.83,2.26.02,2.59,1.11.29.97.32,2.06.39,3.07.17,2.45-.2,4.86-1.31,7.07-.74,1.48-1.89,2.69-3.26,3.6,0,0-1.47.73-1.77-.95,0,0,1.6-11.73,1.6-11.73Z" style="fill: #e1b099;"/>
            </g>
            <g>
              <path d="m58.68,81.26c-.13-.95-1.74-2.5-2.45-3.02-1.57-1.16-3.16.03-3.62,1.55-.41,1.35-.45,2.88-.55,4.28-.24,3.43.28,6.79,1.82,9.88,1.03,2.06,2.64,3.76,4.56,5.04,0,0,2.06,1.02,2.47-1.33,0,0-2.23-16.39-2.24-16.4Z" style="fill: #f9c2a7;"/>
              <path d="m59.01,83.32c-.09-.68-1.24-1.78-1.75-2.16-1.13-.83-2.26.02-2.59,1.11-.29.97-.32,2.06-.39,3.07-.17,2.45.2,4.86,1.31,7.07.74,1.48,1.89,2.69,3.26,3.6,0,0,1.47.73,1.77-.95,0,0-1.6-11.73-1.6-11.73Z" style="fill: #e1b099;"/>
            </g>
            <path d="m143.81,84.34c0,10.81-1.86,21.74-6.96,31.1-4.46,8.18-11.14,14.73-18.32,19.97-5.82,4.24-12.07,9.19-19.44,8.59-7.68-.63-13.67-7.18-19.28-12.29-7.9-7.19-14.13-16.11-17.96-26.61-2.37-6.47-3.45-13.78-3.45-20.75,0-34.95,19.12-56.93,42.71-56.93s42.71,21.98,42.71,56.93Z" style="fill: #f9c2a7;"/>
            <path d="m159.37,167.28l-41.58-12.48h-33.37l-41.58,12.48s-19.27,8.19-21.41,34.13h159.35c-2.14-25.94-21.41-34.13-21.41-34.13Z" style="fill: #f9c2a7;"/>
            <path d="m159.37,167.28l-23-6.9-35.27,35.24-35.37-35.21-22.89,6.87s-19.27,8.19-21.41,34.13h159.35c-2.14-25.94-21.41-34.13-21.41-34.13Z" style="fill: #e74645;"/>
          </g>
          <path d="m72.12,41.29s20.57,32.62,71.56,38.17c0,0,9.65-37.16-26.22-55.23,0,0-27.45-11.33-45.35,17.06Z" style="fill: #432918;"/>
          <path d="m77.39,47.89s-13.28,8.59-19.05,32.57c0,0-6.18-45.19,25.79-50.84l-6.74,18.26Z" style="fill: #432918;"/>
          <path d="m129.51,75.7s13.69,87.06-7.94,111.71c0,0,27.65-4.11,29.02-42.16,0,0,4.93-77.75-13.79-104.59l-7.3,35.05Z" style="fill: #432918;"/>
          <path d="m71,187.41s-31.84-3.77-23.07-101.68c0,0,2.19-54.38,34.03-55.63l-1.84,20.63s-18.3,5.45-15.94,48.48c0,0-1.86,69.31,6.82,88.2Z" style="fill: #432918;"/>
        </g>
      </g>
    </g>
  </g>
</svg>