<?xml version="1.0" encoding="UTF-8"?>
<svg xmlns="http://www.w3.org/2000/svg" xmlns:xlink="http://www.w3.org/1999/xlink" viewBox="0 0 200 200">
  <defs>
    <clipPath id="clippath">
      <circle cx="100" cy="100" r="100" transform="translate(-20.36 174.25) rotate(-76.67)" style="fill: #0d3953;"/>
    </clipPath>
  </defs>
  <g style="isolation: isolate;">
    <g id="Camada_1" data-name="Camada 1">
      <g>
        <circle cx="100" cy="100" r="100" transform="translate(-20.36 174.25) rotate(-76.67)" style="fill: #0d3953;"/>
        <g style="clip-path: url(#clippath);">
          <g>
            <rect x="80.85" y="128.29" width="38.3" height="25.8" style="fill: #f9c2a7;"/>
            <path d="m90.14,146.96c5.77,2.29,12.1,3.68,18.31,3.72,3.56.03,7.18-.41,10.69-1.04v-21.35h-38.3v13.35c2.69,2.37,6.12,4.06,9.29,5.32Z" style="fill: #ededed; mix-blend-mode: multiply;"/>
            <g>
              <path d="m142.26,80.51c.13-.94,1.78-2.47,2.5-2.98,1.6-1.15,3.22.03,3.69,1.53.42,1.34.46,2.84.56,4.23.25,3.38-.28,6.71-1.86,9.76-1.05,2.04-2.69,3.71-4.64,4.97,0,0-2.1,1.01-2.52-1.32,0,0,2.28-16.19,2.28-16.2Z" style="fill: #f9c2a7;"/>
              <path d="m141.93,82.54c.1-.67,1.27-1.77,1.79-2.13,1.15-.82,2.3.02,2.64,1.09.3.96.33,2.03.4,3.03.18,2.42-.2,4.8-1.33,6.98-.75,1.46-1.93,2.65-3.32,3.56,0,0-1.5.72-1.8-.94,0,0,1.63-11.58,1.63-11.59Z" style="fill: #e1b099;"/>
            </g>
            <g>
              <path d="m56.76,80.51c-.13-.94-1.78-2.47-2.5-2.98-1.6-1.15-3.22.03-3.69,1.53-.42,1.34-.46,2.84-.56,4.23-.25,3.38.28,6.71,1.86,9.76,1.05,2.04,2.69,3.71,4.64,4.97,0,0,2.1,1.01,2.52-1.32,0,0-2.28-16.19-2.28-16.2Z" style="fill: #f9c2a7;"/>
              <path d="m57.1,82.54c-.09-.67-1.27-1.77-1.78-2.13-1.15-.82-2.3.02-2.64,1.09-.3.96-.33,2.03-.4,3.03-.17,2.42.21,4.8,1.33,6.98.75,1.46,1.93,2.65,3.32,3.56,0,0,1.5.72,1.8-.94,0,0-1.63-11.58-1.63-11.59Z" style="fill: #e1b099;"/>
            </g>
            <path d="m143.55,83.56c0,10.68-1.9,21.48-7.1,30.72-4.54,8.08-11.36,14.55-18.68,19.72-5.93,4.19-12.3,9.08-19.81,8.48-7.83-.62-13.93-7.09-19.65-12.14-8.05-7.1-14.4-15.92-18.31-26.29-2.41-6.39-3.52-13.61-3.52-20.49,0-34.52,19.49-56.24,43.54-56.24s43.54,21.72,43.54,56.24Z" style="fill: #f9c2a7;"/>
            <path d="m166.88,165.76l-47.73-12.48h-38.3l-47.73,12.48s-22.12,8.19-24.58,34.13h182.9c-2.46-25.94-24.58-34.13-24.58-34.13Z" style="fill: #f9c2a7;"/>
            <path d="m166.88,165.76l-47.73-12.48h-38.3l-47.73,12.48s-22.12,8.19-24.58,34.13h182.9c-2.46-25.94-24.58-34.13-24.58-34.13Z" style="fill: #fff;"/>
            <path d="m166.88,165.76l-35.32-9.24-31.55,43.37-31.21-43.46-35.66,9.33s-22.12,8.19-24.58,34.13h182.9c-2.46-25.94-24.58-34.13-24.58-34.13Z" style="fill: #002638;"/>
            <polygon points="95.81 178.17 87.02 199.9 112 199.9 103.43 178.17 95.81 178.17" style="fill: #f9b233;"/>
            <g>
              <polygon points="99.43 153.71 88.23 168.73 96.01 178.23 99.82 178.17 103.63 178.1 111.1 168.35 99.43 153.71" style="fill: #f9b233;"/>
              <path d="m106.9,166.76c-1.43,2.83-4.1,6.05-7.71,5.26-3.74-.82-5.46-4.36-4.59-7.95.84-3.5,3.1-6.42,4.36-9.73l-10.73,14.4,7.78,9.5,7.62-.12,7.47-9.75-3.16-3.96c-.31.81-.65,1.6-1.04,2.37Z" style="fill: #dadada; mix-blend-mode: multiply;"/>
            </g>
            <path d="m144.16,79.31s-7.1,33.21-30.94,42.76c0,0-2.97,7.37-12.85,7.37s-12.85-7.37-12.85-7.37c-23.84-9.56-30.94-42.76-30.94-42.76-2.07,37.17,24.67,53.32,24.67,53.32,14.57,11.93,19.12,9.88,19.12,9.88,0,0,4.55,2.05,19.12-9.88,0,0,26.48-15.06,24.67-53.32Z" style="fill: #432918;"/>
            <path d="m100,110.97s-9.85-3-12.48,11.1c0,0-2.79-.36-7.21-3.89,0,0,6.62-16.52,19.69-7.2Z" style="fill: #432918;"/>
            <path d="m100.84,110.97s9.86-3,12.48,11.1c0,0,2.79-.36,7.21-3.89,0,0-6.62-16.52-19.69-7.2Z" style="fill: #432918;"/>
            <path d="m56.58,79.31s6.39-38.88,26.32-35.06c0,0,18.02,11.21,33.04-.26,0,0,18.22-.61,28.22,35.32,0,0,2.5-38.33-25.02-51.99,0,0-25.45-11.74-47.23,5.73,0,0-20.63,16.3-15.34,46.25Z" style="fill: #432918;"/>
            <polygon points="100 199.9 68.79 156.44 43.83 162.96 75.72 185.42 67.53 189.03 82.28 199.9 100 199.9" style="fill: #001b2e;"/>
            <polygon points="100 199.96 131.21 156.5 156.17 163.02 124.28 185.48 132.47 189.09 117.73 199.96 100 199.96" style="fill: #001b2e;"/>
            <polygon points="62.07 154.2 80.79 145.42 99.87 153.39 118.95 145.42 138.95 154.2 110.67 173.13 99.87 157.65 88.23 173.13 62.07 154.2" style="fill: #e9e9e9;"/>
          </g>
        </g>
      </g>
    </g>
  </g>
</svg>