<?xml version="1.0" encoding="UTF-8"?>
<svg xmlns="http://www.w3.org/2000/svg" xmlns:xlink="http://www.w3.org/1999/xlink" viewBox="0 0 200 202.44">
  <defs>
    <clipPath id="clippath">
      <circle cx="100" cy="100" r="100" transform="translate(-12.18 186.11) rotate(-82.51)" style="fill: none;"/>
    </clipPath>
  </defs>
  <g style="isolation: isolate;">
    <g id="Camada_1" data-name="Camada 1">
      <circle cx="100" cy="100" r="100" transform="translate(-12.18 186.11) rotate(-82.51)" style="fill: #f9b233;"/>
      <g style="clip-path: url(#clippath);">
        <g>
          <rect x="84.24" y="130.78" width="38.3" height="25.8" style="fill: #f9c2a7;"/>
          <path d="m93.53,149.44c5.77,2.29,12.1,3.68,18.32,3.72,3.56.03,7.18-.41,10.69-1.04v-21.35h-38.3v13.35c2.69,2.37,6.12,4.06,9.29,5.32Z" style="fill: #ededed; mix-blend-mode: multiply;"/>
          <g>
            <path d="m144.84,82.23c.13-.95,1.74-2.5,2.45-3.02,1.57-1.16,3.16.03,3.62,1.55.41,1.35.45,2.88.55,4.28.24,3.42-.28,6.79-1.82,9.88-1.03,2.06-2.64,3.76-4.56,5.04,0,0-2.06,1.02-2.47-1.33,0,0,2.23-16.39,2.24-16.4Z" style="fill: #f9c2a7;"/>
            <path d="m144.51,84.28c.09-.68,1.25-1.79,1.75-2.16,1.12-.83,2.26.02,2.59,1.11.29.97.32,2.06.39,3.07.17,2.45-.2,4.86-1.3,7.07-.74,1.48-1.89,2.69-3.26,3.6,0,0-1.47.73-1.77-.95,0,0,1.6-11.72,1.6-11.73Z" style="fill: #e1b099;"/>
          </g>
          <g>
            <path d="m60.96,82.23c-.13-.95-1.74-2.5-2.45-3.02-1.57-1.16-3.16.03-3.62,1.55-.41,1.35-.45,2.88-.55,4.28-.24,3.42.28,6.79,1.82,9.88,1.03,2.06,2.64,3.76,4.56,5.04,0,0,2.06,1.02,2.47-1.33,0,0-2.23-16.39-2.24-16.4Z" style="fill: #f9c2a7;"/>
            <path d="m61.29,84.28c-.09-.68-1.25-1.79-1.75-2.16-1.13-.83-2.26.02-2.59,1.11-.29.97-.32,2.06-.39,3.07-.17,2.45.2,4.86,1.3,7.07.74,1.48,1.89,2.69,3.26,3.6,0,0,1.47.73,1.77-.95,0,0-1.6-11.72-1.6-11.73Z" style="fill: #e1b099;"/>
          </g>
          <path d="m146.1,85.31c0,10.81-1.87,21.74-6.96,31.1-4.46,8.18-11.14,14.73-18.32,19.97-5.82,4.24-12.07,9.19-19.44,8.59-7.68-.63-13.67-7.18-19.28-12.29-7.89-7.19-14.12-16.11-17.96-26.61-2.37-6.47-3.45-13.78-3.45-20.75,0-34.95,19.12-56.93,42.71-56.93s42.71,21.98,42.71,56.93Z" style="fill: #f9c2a7;"/>
          <path d="m170.26,168.25l-47.73-12.48h-38.3l-47.73,12.48s-22.12,8.19-24.58,34.13h182.9c-2.46-25.94-24.57-34.13-24.57-34.13Z" style="fill: #f9c2a7;"/>
          <path d="m170.26,168.25l-47.73-12.48h-38.3l-47.73,12.48s-22.12,8.19-24.58,34.13h182.9c-2.46-25.94-24.57-34.13-24.57-34.13Z" style="fill: #fff;"/>
          <path d="m72.17,45.09s14.33,21.3,50.36,23.76c0,0-3.01-1.37-6.56-10.65,0,0,11.76,10.1,26.63,16.66l3.43,6.93s-.03-3.54,3.25-2.92c0,0,2.73-27.77-8.74-41.43,0,0,5.48.27,9.02,3.28,0,0-5.2-10.92-22.95-16.93,0,0,4.37-3.55,12.29-1.09,0,0-10.48-4.91-28.04-4.1,0,0-34.44-1.38-38.7,26.48Z" style="fill: #432918;"/>
          <path d="m77.75,50.15l-17,31.5s-1.51-1.82-2.24-2.44c0,0-.87-43.26,23.08-51.46l-3.85,22.4Z" style="fill: #432918;"/>
          <path d="m170.26,168.25l-35.32-9.24-31.55,43.37-31.21-43.46-35.66,9.33s-22.12,8.19-24.58,34.13h182.9c-2.46-25.94-24.57-34.13-24.57-34.13Z" style="fill: #3c3c3b;"/>
          <polygon points="99.2 180.65 90.41 202.38 115.39 202.38 106.82 180.65 99.2 180.65" style="fill: #bc1621;"/>
          <g>
            <polygon points="102.81 156.19 91.62 171.21 99.4 180.71 103.21 180.65 107.02 180.59 114.49 170.84 102.81 156.19" style="fill: #be1622;"/>
            <path d="m110.29,169.24c-1.43,2.83-4.1,6.05-7.71,5.26-3.74-.82-5.46-4.36-4.59-7.95.84-3.5,3.1-6.42,4.36-9.73l-10.73,14.4,7.78,9.5,7.62-.12,7.47-9.75-3.16-3.96c-.31.81-.65,1.6-1.04,2.37Z" style="fill: #dadada; mix-blend-mode: multiply;"/>
          </g>
          <polygon points="103.39 202.38 72.17 158.92 47.22 165.45 79.11 187.9 70.92 191.51 85.66 202.38 103.39 202.38" style="fill: #313130;"/>
          <polygon points="103.39 202.44 134.6 158.98 159.56 165.51 127.67 187.96 135.86 191.57 121.11 202.44 103.39 202.44" style="fill: #313130;"/>
          <polygon points="65.46 156.68 84.18 147.9 103.26 155.87 122.34 147.9 142.34 156.68 114.06 175.61 103.26 160.14 91.62 175.61 65.46 156.68" style="fill: #e9e9e9;"/>
        </g>
      </g>
    </g>
  </g>
</svg>