<?xml version="1.0" encoding="UTF-8"?>
<svg xmlns="http://www.w3.org/2000/svg" viewBox="0 0 1112.89 746.13">
  <g style="isolation: isolate;">
    <g id="Layer_2" data-name="Layer 2">
      <path d="m250.88,62.93c-9.71-11.95-14.05-30.06-6.87-47.14,2.6-6.18,7.12-12.42,13.14-14.78,5.86-2.3,11.71-.37,16.06,2.81,10.75,7.85,18.98,21.79,19.93,36.47.41,6.33-.49,41.73-7.14,45.18-8.69,4.51-30.73-17.13-35.12-22.54Z" style="fill: #aec77f;"/>
      <path d="m346.44,119.1c12.68-10.55,22.82-28.76,22.52-48.36-.11-7.09-1.88-14.65-6.33-18.44-4.33-3.69-10.12-2.9-15.04-.48-12.15,5.99-20.94,20.55-26.91,35.86-2.57,6.6-17.48,42.63-12.87,47.71,6.03,6.63,32.89-11.52,38.62-16.29Z" style="fill: #aec77f;"/>
      <path d="m374.04,181.43c15.18-9.18,28.83-26.54,31.55-46.68.98-7.28.26-15.27-3.9-19.72-4.05-4.34-10.36-4.28-15.99-2.43-13.91,4.58-25.55,18.36-34.3,33.29-3.77,6.44-25.28,41.46-21.14,47.26,5.41,7.58,36.91-7.57,43.78-11.72Z" style="fill: #aec77f;"/>
      <path d="m405.09,243.56c18.35-9.01,35.68-27.46,40.64-50.06,1.8-8.18,1.69-17.3-2.7-22.75-4.28-5.3-11.56-5.82-18.23-4.24-16.46,3.91-31.15,18.48-42.6,34.62-4.94,6.96-32.94,44.72-28.69,51.68,5.55,9.11,43.28-5.17,51.58-9.25Z" style="fill: #aec77f;"/>
      <path d="m439.45,315.13c19.86-11,38.13-32.61,42.52-58.33,1.59-9.3,1.03-19.6-4.1-25.54-4.99-5.78-13.07-6.04-20.37-3.95-18.02,5.16-33.56,22.27-45.44,41-5.12,8.08-34.25,51.95-29.22,59.61,6.58,10.02,47.63-7.81,56.61-12.79Z" style="fill: #aec77f;"/>
      <path d="m469.41,396.27c20.27-9.52,39.64-29.84,45.56-55.43,2.14-9.26,2.22-19.68-2.48-26.08-4.57-6.23-12.53-7.13-19.86-5.6-18.1,3.77-34.49,19.78-47.37,37.72-5.55,7.74-37,49.66-32.51,57.78,5.88,10.62,47.49-4.09,56.65-8.39Z" style="fill: #aec77f;"/>
      <path d="m266.59,150.26c-16.47.83-36.27-5.7-49.32-20.32-4.72-5.29-8.54-12.05-7.83-17.85.69-5.64,5.48-8.99,10.74-10.54,13-3.82,29.32.93,44.08,8.16,6.37,3.12,41.73,19.53,41.78,26.38.06,8.96-32,13.8-39.45,14.17Z" style="fill: #aec77f;"/>
      <path d="m288.5,214.81c-17.38,3.53-39.19,0-54.83-12.97-5.66-4.69-10.53-11.05-10.49-17.15.04-5.93,4.72-10.17,10.12-12.62,13.33-6.05,31.23-3.8,47.78,1.26,7.14,2.18,46.68,13.38,47.56,20.45,1.16,9.24-32.28,19.44-40.14,21.03Z" style="fill: #aec77f;"/>
      <path d="m307.74,281.55c-19.6,5.8-44.85,3.96-63.81-9.3-6.86-4.8-12.96-11.58-13.42-18.57-.44-6.8,4.56-12.11,10.54-15.46,14.76-8.28,35.43-7.51,54.79-3.39,8.35,1.78,54.52,10.59,56.11,18.59,2.08,10.46-35.34,25.51-44.21,28.13Z" style="fill: #aec77f;"/>
      <path d="m330.93,357.48c-22.06,5.35-50.14,1.84-70.79-14.11-7.47-5.77-14.03-13.72-14.28-21.57-.25-7.63,5.53-13.3,12.31-16.7,16.75-8.41,39.77-6.35,61.19-.62,9.24,2.47,60.39,15.02,61.87,24.07,1.94,11.83-40.33,26.51-50.31,28.93Z" style="fill: #aec77f;"/>
      <path d="m364.23,437.31c-21.36,6.73-49.37,4.89-71.06-9.92-7.84-5.36-14.96-12.97-15.84-20.86-.86-7.68,4.39-13.73,10.82-17.57,15.87-9.49,38.77-8.81,60.4-4.33,9.32,1.93,60.86,11.47,63.05,20.49,2.87,11.8-37.7,29.15-47.36,32.2Z" style="fill: #aec77f;"/>
      <polygon points="288.52 82.29 460.41 510.64 450.73 514.46 283.9 84.11 288.52 82.29" style="fill: #b17f4a;"/>
      <g>
        <path d="m92.8,135.08c-6.98-9.78-9.78-23.68-4.85-36.94,1.7-4.58,4.69-8.98,8.3-10.18,3.52-1.17,6.8.89,9.17,3.66,6.55,7.63,10.66,17.75,11.66,27.98.78,8.07,4.11,28.83-.72,32.39-4.54,3.35-19.97-11.9-23.56-16.92Z" style="fill: #aec77f;"/>
        <path d="m158.8,170.94c7.41-10.25,7.57-22.26,6.12-32.43-.56-3.95-2.38-8.84-5.55-11.34-2.78-2.18-6.28-1.49-9.03.25-9.02,5.74-11.15,17.33-12.49,24.95-1.7,9.61-5.5,28.3.68,32.87,4.49,3.32,16.74-9.42,20.27-14.31Z" style="fill: #aec77f;"/>
        <path d="m191.48,204.44c8-10.08,8.18-21.98,6.29-31.94-.73-3.84-2.98-8.53-6.46-10.68-3.17-1.96-7-1.11-10.03.68-9.36,5.54-12.02,16.82-13.48,24.55-1.74,9.18-5.59,27.51.87,32,5.1,3.54,18.77-9.51,22.81-14.6Z" style="fill: #aec77f;"/>
        <path d="m232.55,230.5c8.21-11,8.21-24.83,4.83-35.01-1.31-3.95-4.26-8.88-8.44-10.79-3.9-1.78-8.38-.54-11.78,1.66-10.35,6.69-13.04,18.36-14.3,27.46-1.3,9.47-4.7,30.61,3.38,34.45,6.93,3.3,21.52-11.37,26.3-17.77Z" style="fill: #aec77f;"/>
        <path d="m285.65,251.99c5.94-13.63,1.77-27.47-4.86-37.79-2.68-4.17-6.73-8.34-12.29-9.69-4.74-1.15-9.47,1.06-12.7,4.05-9.98,9.23-9.63,22.26-8.4,31.89,1.32,10.34,3.61,32.67,14.38,35.75,8.87,2.53,20.99-17.58,23.87-24.2Z" style="fill: #aec77f;"/>
        <path d="m348.56,268.15c4.28-13.65-2.71-26.18-11.29-34.88-3.58-3.63-8.55-7.02-14.56-7.6-5.16-.5-9.71,2.14-12.6,5.33-8.85,9.78-6.54,22-3.8,30.89,2.96,9.61,8.76,30.24,20.3,31.82,9.78,1.34,19.74-18.51,21.95-25.57Z" style="fill: #aec77f;"/>
        <path d="m116.32,198.84c-14.63,2.68-27.24-4.81-35.64-12.72-3.87-3.64-7.38-8.47-8.05-13.91-.53-4.33,2.19-7.09,5.18-8.11,10.16-3.46,21.01,2.45,28.64,5.88,9.57,4.3,28.57,8.45,31.13,15.88,1.82,5.29-15.28,11.88-21.25,12.97Z" style="fill: #aec77f;"/>
        <path d="m150.52,239.3c-13.66,7.39-29.06,3.7-39.62-1.22-5.21-2.43-10.22-6.26-12.47-11.24-1.9-4.2-.05-7.86,2.67-9.94,8.69-6.66,21.89-4.6,30.66-3.59,10.71,1.23,31.23.19,36.14,6.39,3.75,4.75-11.32,16.34-17.37,19.61Z" style="fill: #aec77f;"/>
        <path d="m192.31,274.9c-12.75,11.32-31.44,11.3-44.72,8.4-6.82-1.49-13.62-4.62-17.59-9.52-3.47-4.28-2.53-8.82-.12-11.87,7.38-9.35,23-10.5,33.26-11.49,11.7-1.12,35.77-6.95,42.44-1.44,5.54,4.57-6.97,20.33-13.27,25.92Z" style="fill: #aec77f;"/>
        <path d="m250.34,305.96c-13.21,13.79-35.65,16.12-51.67,14.51-8.02-.81-16.95-3.33-22.43-8.05-3.34-2.88-5.15-7.82-2.01-12.47,7.27-10.76,26.01-13.69,37.37-15.83,8.4-1.58,16.92-3.33,25.37-4.92,7.31-1.38,18.92-4.86,24.28-2.21,7.96,3.94-5.25,23.07-10.91,28.98Z" style="fill: #aec77f;"/>
        <path d="m325.85,323.22c-8.3,15.49-30.38,22.42-46.66,24.37-8.55,1.02-18.45.54-25.52-2.59-4.43-1.97-8.09-6.05-6.71-11.17,3.07-11.34,20.97-18.31,31.61-22.67,12.67-5.19,36.51-19.06,47.77-16.83,9.45,1.87,3.34,21.74-.5,28.9Z" style="fill: #aec77f;"/>
        <path d="m394.66,299.99c-63.32,0-121.95-13.71-171.22-40.24-58.16-31.32-100.46-78.99-122.33-137.84l2.18-.81c43.94,118.25,171.84,187.04,325.84,175.24l.18,2.31c-11.68.89-23.24,1.34-34.65,1.34Z" style="fill: #b17f4a;"/>
      </g>
      <ellipse cx="556.44" cy="699.79" rx="556.44" ry="46.35" style="fill: #359a92;"/>
      <ellipse cx="236.5" cy="705.86" rx="184.35" ry="19.21" style="fill: #007a7b;"/>
      <ellipse cx="512.16" cy="704.75" rx="184.35" ry="19.21" style="fill: #007a7b;"/>
      <ellipse cx="739.11" cy="712.47" rx="184.35" ry="19.21" style="fill: #007a7b;"/>
      <ellipse cx="835.46" cy="708.28" rx="148.31" ry="15.03" style="fill: #007a7b;"/>
      <g>
        <rect x="846.38" y="605.98" width="59.12" height="44.03" transform="translate(1751.88 1255.99) rotate(180)" style="fill: #b48837;"/>
        <rect x="871.72" y="605.98" width="8.43" height="22.02" transform="translate(1751.88 1233.98) rotate(180)" style="fill: #f1c998;"/>
      </g>
      <g>
        <rect x="840.62" y="649.89" width="103.5" height="62.32" transform="translate(1784.74 1362.11) rotate(180)" style="fill: #b6935b;"/>
        <rect x="887" y="650.17" width="10.73" height="22.65" transform="translate(1784.74 1322.98) rotate(180)" style="fill: #f1c998;"/>
      </g>
      <g>
        <path d="m309.56,185.04h565.42c28.32,0,51.31,22.99,51.31,51.31v251.58c0,28.32-22.99,51.31-51.31,51.31H309.56c-28.32,0-51.31-22.99-51.31-51.31v-251.58c0-28.32,22.99-51.31,51.31-51.31Z" transform="translate(954.41 -230.12) rotate(90)" style="fill: #575756;"/>
        <rect x="430.89" y="45.4" width="322.75" height="633.5" rx="34.83" ry="34.83" style="fill: #f6f6f6;"/>
        <path d="m753.64,80.22c0-19.24-15.59-34.83-34.83-34.83h-253.09c-19.24,0-34.83,15.59-34.83,34.83v50.61h322.75v-50.61Z" style="fill: #f6f6f6;"/>
        <path d="m430.89,130.84v513.23c0,19.24,15.59,34.83,34.83,34.83h253.09c19.24,0,34.83-15.59,34.83-34.83V130.84h-322.75Z" style="fill: #f6f6f6;"/>
      </g>
      <g style="mix-blend-mode: multiply;">
        <path d="m767.77,177.27h-350.56v71.07c4.48-3.52,7.55-8.32,8.81-13.71,2.39,10.77,12.05,18.86,23.58,18.86s21.39-8.14,23.92-18.96c1.15,5.5,4.17,10.45,8.7,14.02,4.34,3.43,9.58,5.24,15.16,5.24,11.77,0,21.68-8.32,24.09-19.36,2.4,10.82,12.13,18.96,23.67,18.96s21.07-7.82,23.67-18.49c2.47,10.98,12.24,19.03,23.98,19.03,6.6,0,12.79-2.56,17.44-7.22,3.37-3.38,5.62-7.57,6.59-12.13,2.51,10.74,12.25,18.81,23.74,18.81s21.25-8.12,23.66-18.92c2.42,11.04,12.33,19.35,24.1,19.35,5.58,0,10.83-1.81,15.17-5.25,4.53-3.58,7.56-8.54,8.7-14.06,2.54,10.79,12.35,18.91,23.88,18.91s21.2-8.11,23.56-18.89c1.17,5.15,3.99,9.84,8.12,13.35v-70.6Z" style="fill: #c6c6c6;"/>
      </g>
      <g>
        <g>
          <polygon points="768.28 124.47 416.2 124.47 378.3 190.49 806.19 190.49 768.28 124.47" style="fill: #ffce00;"/>
          <g>
            <polygon points="416.2 124.47 378.3 190.49 426 190.49 455.45 124.47 416.2 124.47" style="fill: #4bb0a8;"/>
            <polygon points="494.41 124.47 473.34 190.49 521.05 190.49 533.66 124.47 494.41 124.47" style="fill: #4bb0a8;"/>
            <polygon points="572.62 124.47 568.39 190.49 616.09 190.49 611.87 124.47 572.62 124.47" style="fill: #4bb0a8;"/>
            <polygon points="650.82 124.47 663.44 190.49 711.14 190.49 690.07 124.47 650.82 124.47" style="fill: #4bb0a8;"/>
            <polygon points="768.28 124.47 729.03 124.47 758.48 190.49 806.19 190.49 768.28 124.47" style="fill: #4bb0a8;"/>
          </g>
        </g>
        <g>
          <path d="m377.64,190.49c-.03,16.76,10.49,30.31,23.64,30.31s23.92-13.55,24.18-30.31h-47.83Z" style="fill: #58807f;"/>
          <path d="m425.49,190.49c0,16.63,10.48,30.07,23.53,30.07s23.7-13.45,23.93-30.07h-47.46Z" style="fill: #f69f14;"/>
          <path d="m473.05,190.49c-.04,16.82,10.57,30.46,23.75,30.46s23.91-13.64,24.02-30.46h-47.77Z" style="fill: #58807f;"/>
          <path d="m520.95,190.49c.11,16.56,10.61,29.95,23.61,29.95s23.57-13.39,23.74-29.95h-47.35Z" style="fill: #f69f14;"/>
          <path d="m568.25,190.49c0,16.91,10.72,30.63,23.96,30.63s23.96-13.72,23.96-30.63h-47.92Z" style="fill: #58807f;"/>
          <path d="m616.24,190.49c.18,16.56,10.74,29.95,23.75,29.95s23.51-13.39,23.61-29.95h-47.35Z" style="fill: #f69f14;"/>
          <path d="m663.71,190.49c.1,16.84,10.84,30.49,24.04,30.49s23.81-13.65,23.76-30.49h-47.8Z" style="fill: #58807f;"/>
          <path d="m711.61,190.49c.25,16.58,10.88,29.98,23.89,29.98s23.47-13.4,23.49-29.98h-47.38Z" style="fill: #f69f14;"/>
          <path d="m759.08,190.49c.19,16.82,10.98,30.46,24.16,30.46s23.73-13.64,23.61-30.46h-47.77Z" style="fill: #58807f;"/>
        </g>
      </g>
      <g>
        <rect x="727.12" y="569.02" width="101.62" height="63.33" style="fill: #cfa254;"/>
        <rect x="770.68" y="569.02" width="14.5" height="31.66" style="fill: #f1c998;"/>
      </g>
      <g>
        <rect x="713.48" y="632.18" width="143.81" height="89.63" style="fill: #d7b46c;"/>
        <rect x="777.93" y="632.57" width="14.92" height="32.58" style="fill: #f1c998;"/>
      </g>
      <g>
        <g>
          <rect x="198.71" y="616.4" width="43.5" height="32.4" transform="translate(440.92 1265.2) rotate(180)" style="fill: #b48837;"/>
          <rect x="217.36" y="616.4" width="6.2" height="16.2" transform="translate(440.92 1249) rotate(180)" style="fill: #f1c998;"/>
        </g>
        <g>
          <rect x="194.47" y="648.71" width="76.15" height="45.85" transform="translate(465.1 1343.27) rotate(180)" style="fill: #b6935b;"/>
          <rect x="228.6" y="648.91" width="7.9" height="16.67" transform="translate(465.1 1314.49) rotate(180)" style="fill: #f1c998;"/>
        </g>
      </g>
      <g>
        <g>
          <rect x="110.97" y="589.21" width="74.76" height="46.59" style="fill: #cfa254;"/>
          <rect x="143.02" y="589.21" width="10.66" height="23.3" style="fill: #f1c998;"/>
        </g>
        <g>
          <rect x="100.93" y="635.68" width="105.81" height="65.94" style="fill: #d7b46c;"/>
          <rect x="148.35" y="635.96" width="10.97" height="23.97" style="fill: #f1c998;"/>
        </g>
      </g>
      <g>
        <path d="m315.32,335.92c-7.2-33.58-54.11-17.07-54.97-52.55-.06-2.48-.95-6.37-2.01-8.61-8.55-18.14-23.56,1.23-32.57-16.53-.01-.02-.02-.04-.04-.06-8.14-10.49-29.49-6.24-30.93,7.88-.02.18-.17.32-.36.32-21.95-.06-27.41,31.6-32.57,56.95-3.64,17.92-22.9,27.91-39.63,20.54-3.17-1.4-6.31-2.94-9.38-4.4-11.39-5.41-24.45,3.9-22.71,16.39.58,4.18,2.08,8.17,4.53,11.11.02.02.03.04.05.05,9.85,8.16,13.29,17.94,10.49,31.51-.88,4.29-.88,8.74.31,12.96,6.35,22.46,33.29,28.17,47.51,14.47.01-.01.03-.03.04-.04,7.07-9.08,12.82-1.87,17.09,7.2.41.86.92,1.67,1.54,2.4,10.09,11.8,33.31,12.34,42.75-.5.05-.06.07-.14.07-.22,1.27-67.71,25.02-15.18,51.98-27.82.02,0,.03-.01.04-.02,7.43-4.36,9.81-14.43,10.14-24.09,0-.19.15-.34.34-.35,23.9-1.53,48.38-10.13,38.29-46.59Z" style="fill: #683c11;"/>
        <g>
          <g>
            <path d="m318.29,647.39l-13.31-.75,1.47,36.75s-.32.39-.79.99l9.4,15.4-.18-5.79,5.56-1.76c-.68-4.22-1.09-8.94-1.09-8.94l-1.06-35.9Z" style="fill: #faba74;"/>
            <path d="m331.65,716.31c-.44-3.55-7.71-16.16-9.41-17.75-.7-.66-1.31-3.37-1.79-6.33l-5.56,1.76.18,5.79-9.4-15.4c-1.37,1.75-4.05,5.25-3.97,5.91.11.89.36,7.76,3.13,10.72,2.77,2.96,3.99.71,5.91,4.07,1.92,3.37-1.82,11.94,10.27,12.54,12.09.6,10.65-1.32,10.65-1.32Z" style="fill: #775946;"/>
          </g>
          <g>
            <path d="m149.26,550.52l.75-13.31-36.75,1.47s-.39-.32-.99-.79l-15.4,9.4,5.79-.18,1.76,5.56c4.22-.68,8.94-1.09,8.94-1.09l35.9-1.06Z" style="fill: #faba74;"/>
            <path d="m80.35,563.89c3.55-.44,16.16-7.71,17.75-9.41.66-.7,3.37-1.31,6.33-1.79l-1.76-5.56-5.79.18,15.4-9.4c-1.75-1.37-5.25-4.05-5.91-3.97-.89.11-7.76.36-10.72,3.13-2.96,2.77-.71,3.99-4.07,5.91-3.37,1.92-11.94-1.82-12.54,10.27-.6,12.09,1.32,10.65,1.32,10.65Z" style="fill: #775946;"/>
          </g>
          <path d="m288.41,409.37s15.12,35.68,18.69,42.14c3.57,6.46,23.58,74.8,28.13,90.37s8.54,130.01,8.54,130.01l-41.44,1.71c-6.92-85.63-8.61-83.86-8.96-100.35-.35-16.27,1.22-23.64,1.22-23.64,0,0-21.56-46.83-30.8-67.77,0,0,7.86,83.18-6.18,89.11-14.04,5.93-129.54,5.83-129.54,5.83l-1.5-46.29s49.54-3.53,58.46-4.64c16.49-2.05,31.9,1.35,31.9,1.35,0,0-11.92-36.06-8.19-66.67,3.73-30.61,11.35-37,11.35-37l68.35-14.16Z" style="fill: #004e75;"/>
          <path d="m356.47,235.43c4.28,1.53,12.93,2.88,12.93,2.88l6.68,3.14c.62.27,1.34-.05,1.53-.69h0c.14-.46-.04-.95-.44-1.22l-5.99-3.79,8.4,1.81c.71.24,1.48-.11,1.74-.8h0c.26-.68-.08-1.45-.76-1.73l-8.88-2.45,10.28.38c.67.01,1.22-.53,1.2-1.19h0c-.02-.54-.42-1-.96-1.1l-11.14-1.91,7.97-.7c.74-.04,1.28-.69,1.18-1.41h0c-.09-.61-.62-1.06-1.25-1.06-2.54.02-9.32.35-9.57.17-.32-.22-6.54-.11-6.36-2.15.18-2.04,5.07-5.15,3.23-6.39-1.83-1.24-5.31,4.91-8.32,5.34-3.01.43-5.79,6.67-5.79,6.67l-12.71,5.76,3.9,7.45,13.12-7.01Z" style="fill: #faba74;"/>
          <path d="m259.1,311.63s55.22-74.84,89.94-83.96l12.36,18.33s-66.8,66.16-70.17,101.9c-3.37,35.74-67.28,5.75-32.13-36.27Z" style="fill: #f59e00;"/>
          <g>
            <path d="m226.8,337.96c.96-15.57-4.84-38.41-5.1-39.38l13.92-4.03c5.48,16.45,4.51,14.35,13.69,39.89,5.49,15.26-22.51,3.52-22.51,3.52Z" style="fill: #faba74;"/>
            <path d="m211.51,305.3c8.22,12.19,20.99,19.87,28.29,15.32,7.3-4.55,9.22-21.37,1.01-33.56-8.22-12.19-22.7-14-30-9.45-7.3,4.55-7.51,15.5.7,27.69Z" style="fill: #faba74;"/>
          </g>
          <path d="m303.72,433.24c-7.82-14.54-16.32-60.86-11.54-95s-11.81-42.7-30.91-26.99c-19.1,15.71-23.59,14.64-23.59,14.64,0,0-19.64,2.51-26.86-1.12-7.22-3.64-39.01-7.96-21.11,41.19,16.87,46.33,22.99,57.03,16.74,89.83,0,0,54.05-1.59,74.63-9.27,20.58-7.68,22.63-13.28,22.63-13.28Z" style="fill: #f59e00;"/>
          <g>
            <path d="m83.76,250.21c-4.88,1.36-14.6,2.13-14.6,2.13l-7.69,2.99c-.71.26-1.48-.18-1.64-.92h0c-.11-.53.13-1.08.59-1.35l6.98-3.79-9.48,1.32c-.8.21-1.63-.26-1.86-1.07h0c-.23-.81.22-1.65,1-1.91l10.07-2-11.43-.49c-.75-.04-1.31-.71-1.22-1.47h0c.07-.62.55-1.11,1.16-1.17l12.53-1.18-8.77-1.52c-.81-.11-1.36-.91-1.18-1.72h0c.16-.69.79-1.15,1.48-1.09,2.81.25,10.3,1.23,10.59,1.06.37-.22,7.26.47,7.25-1.88-.01-2.35-5.15-6.33-3.01-7.59,2.14-1.26,5.44,6.08,8.74,6.84s5.82,8.13,5.82,8.13l13.57,7.71-4.99,8.15-13.91-9.19Z" style="fill: #faba74;"/>
            <path d="m219.84,326.38s-18.47-9.99-30.63-19.1c-19.22-14.4-75.28-60.78-97.61-63.38l-9.71,22.69s40.22,17.44,54.19,39.17c13.97,21.72,47.03,53.06,53.31,56.25,5.41,2.75,30.45-35.62,30.45-35.62Z" style="fill: #f59e00;"/>
          </g>
        </g>
        <path d="m198.58,272.31c4.4,6.45,11.9,10.67,19.69,11.1,4.41.24,8.83-.66,13.22-.25,4.91.46,9.64,2.6,13.22,5.98.4-1.97-.33-3.98-1.11-5.84-2.79-6.73-6.72-13.59-13.3-16.73-4.86-2.31-10.47-2.25-15.86-2.13-1.41.03-2.95.11-3.99,1.05l-11.88,6.81Z" style="fill: #683c11;"/>
        <path d="m205.25,271.46c-4.84,5.68-6.71,13.12-4.92,19.56,1.01,3.63,3.11,6.91,3.97,10.59.95,4.11.27,8.64-1.91,12.64,1.98-.33,3.67-1.59,5.2-2.82,5.57-4.48,10.93-9.91,12.03-16.26.81-4.69-.84-9.19-2.46-13.5-.43-1.13-.94-2.34-2.12-2.87l-9.79-7.33Z" style="fill: #683c11;"/>
      </g>
      <path d="m463.11,643.27s-42.02,22.34-35.28,50.7c6.74,28.36,159.54,24.92,159.09,0-.45-24.92-23.37-53.28-23.37-53.28l-100.44,2.58Z" style="fill: #4d477b;"/>
      <g>
        <g>
          <path d="m741.9,519.6l6.59-3.65v-3.97s8.04-5.08,11.15-7.31,2.49,3.84-1.79,6.65c-4.28,2.82,13.53,1.45,13.53,1.45,0,0,11.94-1.11,12.49-.32.55.79.92,6.83,0,10.01-.92,3.18-17.04,8.95-20.34,8.62-3.3-.33-9.98-.68-12.74-3.22l-6.98,3.23-1.91-11.49Z" style="fill: #faba74;"/>
          <path d="m619.47,503.31c-31.03-24.46-52.7-26.83-52.7-26.83l3.92,69.8s46.81,18.67,102.63,12.55c38.24-4.19,60.86-14.16,71.33-20.03l-6.74-21.38c-36.53,15.16-89.22,8.92-118.44-14.11Z" style="fill: #d84254;"/>
          <path d="m744.51,514.36c-2.13,1.11-4.34,2.12-6.6,3.06l6.74,21.38c4.81-2.7,7.05-4.53,7.05-4.53l-7.19-19.91Z" style="fill: #ffa600;"/>
        </g>
        <g>
          <path d="m276.68,522.04l-6.71-3.65v-3.97s-8.2-5.08-11.36-7.31c-3.17-2.22-2.54,3.84,1.82,6.65,4.36,2.82-13.79,1.45-13.79,1.45,0,0-12.18-1.11-12.74-.32s-.94,6.83,0,10.01,17.37,8.95,20.74,8.62c3.36-.33,10.18-.68,12.99-3.22l7.12,3.23,1.95-11.49Z" style="fill: #faba74;"/>
          <path d="m274.02,516.8l-7.33,19.91s2.48,1.99,7.82,4.87l6.12-21.77c-2.27-.93-4.47-1.93-6.61-3.01Z" style="fill: #ffa600;"/>
          <path d="m401.52,505.75c-29.83,23.06-83.63,29.28-120.89,14.06l-6.12,21.77c10.93,5.91,33.86,15.58,72.1,19.69,56.92,6.12,104.64-12.55,104.64-12.55l3.99-69.8s-22.09,2.37-53.73,26.83Z" style="fill: #d84254;"/>
        </g>
        <g>
          <polygon points="528.75 499.76 494.79 499.6 500.59 448.79 521.66 448.9 528.75 499.76" style="fill: #faba74;"/>
          <path d="m574.55,481.46c-9.58-14.59-37.12,1.9-64.48,1.9s-45.35-12.85-63.96-1.43c-16.01,9.83,5.09,126.84,11.3,159.32h111.73c4.88-30.68,20.43-136.93,5.41-159.8Z" style="fill: #d84254;"/>
          <path d="m457.41,641.25c1.01,5.27,1.62,8.32,1.62,8.32h108.75s.53-3.05,1.36-8.32h-111.73Z" style="fill: #ffa600;"/>
          <g>
            <g>
              <path d="m489.55,435.76c1.93,18.37,4.7,37.55,21.48,37.55s21.02-19.25,21.46-37.55c.44-18.14-9.17-27.62-21.46-27.61-10.21,0-23.38,9.59-21.48,27.61Z" style="fill: #faba74;"/>
              <path d="m485.6,445.62c1.13,3.3,2.69,6.75,5.58,5.83,2.88-.91,2.94-4.87,1.82-8.17-1.13-3.3-2.96-4.65-5.08-3.98-1.76.56-3.45,3.02-2.32,6.32Z" style="fill: #faba74;"/>
              <path d="m536.52,445.62c-1.13,3.3-2.69,6.75-5.58,5.83-2.88-.91-2.94-4.87-1.82-8.17,1.13-3.3,2.97-4.65,5.08-3.98,1.76.56,3.45,3.02,2.32,6.32Z" style="fill: #faba74;"/>
            </g>
            <path d="m484.97,429.34c.71,3.25,2.63,5.65,4.03,8.43,1.03,2.04,1.8,4.34,2.26,6.76-.23-3.71,1.76-6.92,2.5-10.5.4-1.91.44-3.92.43-5.9,0-3.76-1.22-10.1-4.7-10-3.69.11-5.43,7.04-4.52,11.2Z" style="fill: #a48a7b;"/>
            <path d="m529.44,433.6c1.16,3.14,1.78,6.48,1.85,9.82.6-3.07,3.23-5.34,4.06-8.35.38-1.38.36-2.84.34-4.28-.03-1.93-.05-3.86-.08-5.79-.05-3.82-2.22-9.32-6.61-5.59-4.4,3.74-1.14,9.88.45,14.19Z" style="fill: #a48a7b;"/>
            <path d="m503.13,419.26c8.17-1.05,16.16,6.17,24.11,3.88,3.58-1.03,6.6-4.07,7.83-7.85,1.23-3.78.62-8.2-1.57-11.43-.31-.45-.73-.93-1.25-.88-1.47.13-.45,3.27-1.75,4.03.69-1.59-.12-3.57-1.4-4.64-1.29-1.07-2.94-1.46-4.53-1.83-3.99-.91-8.26-1.79-12.03-.12-1.3.58-2.5,1.44-3.87,1.79-3.68.94-7.34-2.07-11.11-1.79-3.69.28-6.52,3.57-8.7,6.81-1.11,1.65-2.19,3.43-2.45,5.45-.29,2.29.54,4.62,1.85,6.45,1.44,2.01,4.58,5.63,7.08,4.42,1.12-.55,1.97-1.98,3.07-2.66,1.42-.89,3.09-1.42,4.71-1.62Z" style="fill: #003f5c;"/>
            <path d="m491.47,450.3l8.48,14.42c.7,1.11,1.85,1.78,3.08,1.78h16.78c1.25,0,2.42-.69,3.12-1.84l8.38-15.33s-3.03,19.39-9.88,23.99c-6.85,4.6-15.65,3.69-20.54,0-3.33-2.51-8.42-17.04-9.41-23.01Z" style="fill: #003f5c;"/>
          </g>
        </g>
      </g>
      <g>
        <path d="m565.71,687.43s9.89,5.05,21.94,4.04c12.04-1.01,30.73-1.95,30.73-1.95,0,0-4.5,25.87-26.33,26.29s-39.28-14.19-39.28-14.19l12.95-14.19Z" style="fill: #98673d;"/>
        <path d="m422.55,630.19c-35.62-20.16-89.86-7.82-55.86,40.72,28.78,41.09,152.47,44.74,189.75,44.9l4.01-30.24c-28.12-9.91-108.71-38.86-137.9-55.38Z" style="fill: #525784;"/>
        <path d="m560.45,685.57l-4.01,30.24c6.76.03,10.68-.06,10.68-.06l3.17-26.74s-3.65-1.26-9.84-3.44Z" style="fill: #65aece;"/>
      </g>
      <g>
        <path d="m451.7,687.42s-9.89,5.05-21.94,4.04c-12.04-1.01-30.73-1.95-30.73-1.95,0,0,4.5,25.87,26.33,26.29,21.84.43,39.28-14.19,39.28-14.19l-12.95-14.19Z" style="fill: #98673d;"/>
        <path d="m447.12,689l3.17,26.74s4.79.11,12.91.05l-3.77-31.09c-7.68,2.71-12.3,4.31-12.3,4.31Z" style="fill: #65aece;"/>
        <path d="m594.86,630.18c-28.38,16.06-105.34,43.87-135.43,54.51l3.77,31.09c39.74-.29,159.29-4.58,187.52-44.88,34-48.54-20.24-60.88-55.86-40.72Z" style="fill: #525784;"/>
      </g>
      <g>
        <path d="m813.98,341.83c7.2-33.58,54.11-17.07,54.97-52.55.06-2.48.95-6.37,2.01-8.61,8.55-18.14,23.56,1.23,32.57-16.53.01-.02.02-.04.04-.06,8.14-10.49,29.49-6.24,30.93,7.88.02.18.17.32.36.32,21.95-.06,27.41,31.6,32.57,56.95,3.64,17.92,22.9,27.91,39.63,20.54,3.17-1.4,6.31-2.94,9.38-4.4,11.39-5.41,24.45,3.9,22.71,16.39-.58,4.18-2.08,8.17-4.53,11.11-.02.02-.03.04-.05.05-9.85,8.16-13.29,17.94-10.49,31.51.88,4.29.88,8.74-.31,12.96-6.35,22.46-33.29,28.17-47.51,14.47-.01-.01-.03-.03-.04-.04-7.07-9.08-12.82-1.87-17.09,7.2-.41.86-.92,1.67-1.54,2.4-10.09,11.8-33.31,12.34-42.75-.5-.05-.06-.07-.14-.07-.22-1.27-67.71-25.02-15.18-51.98-27.82-.02,0-.03-.01-.04-.02-7.43-4.36-9.81-14.43-10.14-24.09,0-.19-.15-.34-.34-.35-23.9-1.53-48.38-10.13-38.29-46.59Z"/>
        <g>
          <g>
            <path d="m811.02,653.3l13.31-.75-1.47,36.75s.32.39.79.99l-9.4,15.4.18-5.79-5.56-1.76c.68-4.22,1.09-8.94,1.09-8.94l1.06-35.9Z" style="fill: #faba74;"/>
            <path d="m797.66,722.21c.44-3.55,7.71-16.16,9.41-17.75.7-.66,1.31-3.37,1.79-6.33l5.56,1.76-.18,5.79,9.4-15.4c1.37,1.75,4.05,5.25,3.97,5.91-.11.89-.36,7.76-3.13,10.72-2.77,2.96-3.99.71-5.91,4.07-1.92,3.37,1.82,11.94-10.27,12.54-12.09.6-10.65-1.32-10.65-1.32Z" style="fill: #775946;"/>
          </g>
          <g>
            <path d="m980.04,556.43l-.75-13.31,36.75,1.47s.39-.32.99-.79l15.4,9.4-5.79-.18-1.76,5.56c-4.22-.68-8.94-1.09-8.94-1.09l-35.9-1.06Z" style="fill: #faba74;"/>
            <path d="m1048.96,569.79c-3.55-.44-16.16-7.71-17.75-9.41-.66-.7-3.37-1.31-6.33-1.79l1.76-5.56,5.79.18-15.4-9.4c1.75-1.37,5.25-4.05,5.91-3.97.89.11,7.76.36,10.72,3.13,2.96,2.77.71,3.99,4.07,5.91,3.37,1.92,11.94-1.82,12.54,10.27.6,12.09-1.32,10.65-1.32,10.65Z" style="fill: #775946;"/>
          </g>
          <path d="m840.89,415.28s-15.12,35.68-18.69,42.14c-3.57,6.46-23.58,74.8-28.13,90.37s-8.54,130.01-8.54,130.01l41.44,1.71c6.92-85.63,8.61-83.86,8.96-100.35.35-16.27-1.22-23.64-1.22-23.64,0,0,21.56-46.83,30.8-67.77,0,0-7.86,83.18,6.18,89.11,14.04,5.93,129.54,5.83,129.54,5.83l1.5-46.29s-49.54-3.53-58.46-4.64c-16.49-2.05-31.9,1.35-31.9,1.35,0,0,11.92-36.06,8.19-66.67-3.73-30.61-11.35-37-11.35-37l-68.35-14.16Z" style="fill: #004e75;"/>
          <path d="m772.83,241.33c-4.28,1.53-12.93,2.88-12.93,2.88l-6.68,3.14c-.62.27-1.34-.05-1.53-.69h0c-.14-.46.04-.95.44-1.22l5.99-3.79-8.4,1.81c-.71.24-1.48-.11-1.74-.8h0c-.26-.68.08-1.45.76-1.73l8.88-2.45-10.28.38c-.67.01-1.22-.53-1.2-1.19h0c.02-.54.42-1,.96-1.1l11.14-1.91-7.97-.7c-.74-.04-1.28-.69-1.18-1.41h0c.09-.61.62-1.06,1.25-1.06,2.54.02,9.32.35,9.57.17.32-.22,6.54-.11,6.36-2.15-.18-2.04-5.07-5.15-3.23-6.39,1.83-1.24,5.31,4.91,8.32,5.34,3.01.43,5.79,6.67,5.79,6.67l12.71,5.76-3.9,7.45-13.12-7.01Z" style="fill: #faba74;"/>
          <path d="m870.2,317.54s-55.22-74.84-89.94-83.96l-12.36,18.33s66.8,66.16,70.17,101.9c3.37,35.74,67.28,5.75,32.13-36.27Z" style="fill: #bf7bbb;"/>
          <g>
            <path d="m902.5,343.87c-.96-15.57,4.84-38.41,5.1-39.38l-13.92-4.03c-5.48,16.45-4.51,14.35-13.69,39.89-5.49,15.26,22.51,3.52,22.51,3.52Z" style="fill: #faba74;"/>
            <path d="m917.79,311.21c-8.22,12.19-20.99,19.87-28.29,15.32-7.3-4.55-9.22-21.37-1.01-33.56,8.22-12.19,22.7-14,30-9.45,7.3,4.55,7.51,15.5-.7,27.69Z" style="fill: #faba74;"/>
          </g>
          <path d="m825.58,439.15c7.82-14.54,16.32-60.86,11.54-95s11.81-42.7,30.91-26.99c19.1,15.71,23.59,14.64,23.59,14.64,0,0,19.64,2.51,26.86-1.12,7.22-3.64,39.01-7.96,21.11,41.19-16.87,46.33-22.99,57.03-16.74,89.83,0,0-54.05-1.59-74.63-9.27-20.58-7.68-22.63-13.28-22.63-13.28Z" style="fill: #bf7bbb;"/>
          <g>
            <path d="m1045.54,256.11c4.88,1.36,14.6,2.13,14.6,2.13l7.69,2.99c.71.26,1.48-.18,1.64-.92h0c.11-.53-.13-1.08-.59-1.35l-6.98-3.79,9.48,1.32c.8.21,1.63-.26,1.86-1.07h0c.23-.81-.22-1.65-1-1.91l-10.07-2,11.43-.49c.75-.04,1.31-.71,1.22-1.47h0c-.07-.62-.55-1.11-1.16-1.17l-12.53-1.18,8.77-1.52c.81-.11,1.36-.91,1.18-1.72h0c-.16-.69-.79-1.15-1.48-1.09-2.81.25-10.3,1.23-10.59,1.06-.37-.22-7.26.47-7.25-1.88.01-2.35,5.15-6.33,3.01-7.59-2.14-1.26-5.44,6.08-8.74,6.84s-5.82,8.13-5.82,8.13l-13.57,7.71,4.99,8.15,13.91-9.19Z" style="fill: #faba74;"/>
            <path d="m909.47,332.29s18.47-9.99,30.63-19.1c19.22-14.4,75.28-60.78,97.61-63.38l9.71,22.69s-40.22,17.44-54.19,39.17c-13.97,21.72-47.03,53.06-53.31,56.25-5.41,2.75-30.45-35.62-30.45-35.62Z" style="fill: #bf7bbb;"/>
          </g>
        </g>
        <path d="m930.73,278.21c-4.4,6.45-11.9,10.67-19.69,11.1-4.41.24-8.83-.66-13.22-.25-4.91.46-9.64,2.6-13.22,5.98-.4-1.97.33-3.98,1.11-5.84,2.79-6.73,6.72-13.59,13.3-16.73,4.86-2.31,10.47-2.25,15.86-2.13,1.41.03,2.95.11,3.99,1.05l11.88,6.81Z"/>
        <path d="m924.05,277.37c4.84,5.68,6.71,13.12,4.92,19.56-1.01,3.63-3.11,6.91-3.97,10.59-.95,4.11-.27,8.64,1.91,12.64-1.98-.33-3.67-1.59-5.2-2.82-5.57-4.48-10.93-9.91-12.03-16.26-.81-4.69.84-9.19,2.46-13.5.43-1.13.94-2.34,2.12-2.87l9.79-7.33Z"/>
      </g>
    </g>
  </g>
</svg>