<svg width="32" height="32" viewBox="0 0 32 32" fill="none" xmlns="http://www.w3.org/2000/svg">
<path d="M32 16C32 7.16344 24.8366 0 16 0C7.16344 0 0 7.16344 0 16C0 24.8366 7.16344 32 16 32C24.8366 32 32 24.8366 32 16Z" fill="black"/>
<path d="M15.9834 16C15.9834 14.5273 17.1773 13.3333 18.65 13.3333C20.1228 13.3333 21.3167 14.5273 21.3167 16C21.3167 17.4728 20.1228 18.6667 18.65 18.6667C17.1773 18.6667 15.9834 17.4728 15.9834 16Z" fill="#1ABCFE"/>
<path d="M10.65 21.3333C10.65 19.8606 11.8439 18.6667 13.3167 18.6667H15.9834V21.3333C15.9834 22.8061 14.7895 24 13.3167 24C11.8439 24 10.65 22.8061 10.65 21.3333Z" fill="#0ACF83"/>
<path d="M15.9834 8V13.3333H18.65C20.1228 13.3333 21.3167 12.1394 21.3167 10.6667C21.3167 9.19391 20.1228 8 18.65 8H15.9834Z" fill="#FF7262"/>
<path d="M10.65 10.6667C10.65 12.1394 11.8439 13.3333 13.3167 13.3333H15.9834V8H13.3167C11.8439 8 10.65 9.19391 10.65 10.6667Z" fill="#F24E1E"/>
<path d="M10.65 16C10.65 17.4728 11.8439 18.6667 13.3167 18.6667H15.9834V13.3333H13.3167C11.8439 13.3333 10.65 14.5273 10.65 16Z" fill="#A259FF"/>
</svg>
