<svg width="32" height="32" viewBox="0 0 32 32" fill="none" xmlns="http://www.w3.org/2000/svg">
<path d="M0 16C0 24.8366 7.16344 32 16 32C24.8366 32 32 24.8366 32 16C32 7.16344 24.8366 0 16 0C7.16344 0 0 7.16344 0 16Z" fill="#3A76F0"/>
<path d="M14.0794 8.23355L14.259 8.96087C13.5513 9.13578 12.8739 9.41621 12.2497 9.79275L11.8656 9.14952C12.5527 8.73343 13.2992 8.42456 14.0794 8.23355ZM17.9206 8.23355L17.741 8.96087C18.4487 9.13578 19.126 9.41621 19.7503 9.79275L20.1389 9.14952C19.45 8.7338 18.7021 8.42496 17.9206 8.23355ZM9.14951 11.8633C8.73381 12.5514 8.42497 13.2986 8.23354 14.0794L8.96086 14.259C9.13577 13.5513 9.4162 12.8739 9.79274 12.2497L9.14951 11.8633ZM8.74948 16C8.74943 15.6363 8.77678 15.2731 8.83131 14.9136L8.09035 14.7999C7.96988 15.5947 7.96988 16.4031 8.09035 17.1978L8.83131 17.0864C8.77687 16.7269 8.74951 16.3637 8.74948 16ZM20.1344 22.8482L19.7503 22.2073C19.127 22.5841 18.4504 22.8646 17.7433 23.0391L17.9229 23.7665C18.7021 23.5736 19.4477 23.264 20.1344 22.8482ZM23.2505 16C23.2505 16.3637 23.2231 16.7269 23.1687 17.0864L23.9096 17.1978C24.0301 16.4031 24.0301 15.5947 23.9096 14.7999L23.1687 14.9136C23.2232 15.2731 23.2506 15.6363 23.2505 16ZM23.7664 17.9183L23.0391 17.7388C22.8646 18.4473 22.5842 19.1254 22.2072 19.7503L22.8505 20.1367C23.2666 19.448 23.5754 18.6999 23.7664 17.9183ZM17.0864 23.1687C16.3662 23.2778 15.6337 23.2778 14.9135 23.1687L14.8022 23.9096C15.5962 24.0301 16.4038 24.0301 17.1978 23.9096L17.0864 23.1687ZM21.8368 20.3003C21.4048 20.8861 20.8868 21.4034 20.3003 21.8345L20.7458 22.4391C21.3917 21.9636 21.9632 21.3944 22.4413 20.7503L21.8368 20.3003ZM20.3003 10.1632C20.8868 10.5952 21.4048 11.1132 21.8368 11.6997L22.4413 11.2497C21.9649 10.605 21.395 10.0351 20.7503 9.55864L20.3003 10.1632ZM10.1632 11.6997C10.5952 11.1132 11.1132 10.5952 11.6997 10.1632L11.2497 9.55864C10.605 10.0351 10.0351 10.605 9.55863 11.2497L10.1632 11.6997ZM22.8505 11.8633L22.2072 12.2497C22.5841 12.873 22.8646 13.5496 23.0391 14.2567L23.7664 14.0771C23.575 13.2971 23.2661 12.5506 22.8505 11.8633ZM14.9135 8.83132C15.6337 8.7222 16.3662 8.7222 17.0864 8.83132L17.1978 8.09036C16.4038 7.96988 15.5962 7.96988 14.8022 8.09036L14.9135 8.83132ZM10.5473 22.6391L8.9995 22.9982L9.36089 21.4504L8.63129 21.2799L8.2699 22.8278C8.24729 22.9237 8.24382 23.0232 8.25969 23.1205C8.27556 23.2178 8.31046 23.311 8.36239 23.3948C8.41432 23.4786 8.48227 23.5514 8.56234 23.6089C8.64241 23.6664 8.73304 23.7076 8.82903 23.7301C8.9413 23.7551 9.0577 23.7551 9.16997 23.7301L10.7178 23.3732L10.5473 22.6391ZM8.78585 20.6117L9.51772 20.7799L9.76774 19.7071C9.40263 19.0946 9.13069 18.4313 8.96086 17.7388L8.23354 17.9183C8.39714 18.5812 8.6446 19.2205 8.96995 19.8207L8.78585 20.6117ZM12.2861 22.2345L11.2133 22.4845L11.3838 23.2164L12.1724 23.0323C12.7722 23.3586 13.4117 23.6062 14.0749 23.7687L14.2544 23.0414C13.5641 22.8693 12.9031 22.5959 12.2929 22.23L12.2861 22.2345ZM16 9.49954C12.4088 9.50182 9.50181 12.4134 9.50181 16.0023C9.50379 17.2247 9.84955 18.4218 10.4996 19.4571L9.87456 22.1254L12.5407 21.5004C15.5795 23.4119 19.5934 22.5005 21.5049 19.4639C23.4164 16.4273 22.5073 12.4134 19.4707 10.4996C18.4311 9.84589 17.228 9.49921 16 9.49954Z" fill="white"/>
</svg>
