<svg width="32" height="32" viewBox="0 0 32 32" fill="none" xmlns="http://www.w3.org/2000/svg">
<path d="M32 16C32 7.16344 24.8366 0 16 0C7.16344 0 0 7.16344 0 16C0 24.8366 7.16344 32 16 32C24.8366 32 32 24.8366 32 16Z" fill="#4A154B"/>
<path d="M11.3758 18.1146C11.3758 19.0446 10.6242 19.7962 9.69422 19.7962C8.76429 19.7962 8.0127 19.0446 8.0127 18.1146C8.0127 17.1847 8.76429 16.4331 9.69422 16.4331H11.3758V18.1146Z" fill="#E01E5A"/>
<path d="M12.2168 18.1147C12.2168 17.1848 12.9684 16.4332 13.8983 16.4332C14.8283 16.4332 15.5799 17.1848 15.5799 18.1147V22.3185C15.5799 23.2485 14.8283 24 13.8983 24C12.9684 24 12.2168 23.2485 12.2168 22.3185V18.1147Z" fill="#E01E5A"/>
<path d="M13.8983 11.3631C12.9684 11.3631 12.2168 10.6115 12.2168 9.68153C12.2168 8.75159 12.9684 8 13.8983 8C14.8283 8 15.5799 8.75159 15.5799 9.68153V11.3631H13.8983Z" fill="#36C5F0"/>
<path d="M13.8981 12.2166C14.828 12.2166 15.5796 12.9681 15.5796 13.8981C15.5796 14.828 14.828 15.5796 13.8981 15.5796H9.68153C8.75159 15.5796 8 14.828 8 13.8981C8 12.9681 8.75159 12.2166 9.68153 12.2166H13.8981Z" fill="#36C5F0"/>
<path d="M20.6372 13.8981C20.6372 12.9681 21.3888 12.2166 22.3187 12.2166C23.2487 12.2166 24.0003 12.9681 24.0003 13.8981C24.0003 14.828 23.2487 15.5796 22.3187 15.5796H20.6372V13.8981Z" fill="#2EB67D"/>
<path d="M19.7962 13.8981C19.7962 14.828 19.0446 15.5796 18.1146 15.5796C17.1847 15.5796 16.4331 14.828 16.4331 13.8981V9.68153C16.4331 8.75159 17.1847 8 18.1146 8C19.0446 8 19.7962 8.75159 19.7962 9.68153V13.8981Z" fill="#2EB67D"/>
<path d="M18.1146 20.637C19.0446 20.637 19.7962 21.3886 19.7962 22.3185C19.7962 23.2484 19.0446 24 18.1146 24C17.1847 24 16.4331 23.2484 16.4331 22.3185V20.637H18.1146Z" fill="#ECB22E"/>
<path d="M18.1146 19.7962C17.1847 19.7962 16.4331 19.0446 16.4331 18.1146C16.4331 17.1847 17.1847 16.4331 18.1146 16.4331H22.3312C23.2611 16.4331 24.0127 17.1847 24.0127 18.1146C24.0127 19.0446 23.2611 19.7962 22.3312 19.7962H18.1146Z" fill="#ECB22E"/>
</svg>
