<svg width="32" height="32" viewBox="0 0 32 32" fill="none" xmlns="http://www.w3.org/2000/svg">
<path d="M0 16C0 24.8366 7.16344 32 16 32C24.8366 32 32 24.8366 32 16C32 7.16344 24.8366 0 16 0C7.16344 0 0 7.16344 0 16Z" fill="#1AB7EA"/>
<path d="M8 12.8L8.7 13.7C8.7 13.7 10 12.6 10.5 13.2C10.9 13.7 12.7 20.1 13.2 21.3C13.7 22.3 15.1 23.7 16.6 22.7C18.1 21.7 23.1 17.5 24 12.4C24.9 7.4 18 8.4 17.3 12.8C19 11.7 20 13.2 19 15C18.1 16.7 17.2 17.9 16.8 17.9C16.4 17.9 16 16.7 15.5 14.7C15 12.5 15 8.7 12.8 9.2C10.7 9.6 8 12.8 8 12.8Z" fill="white"/>
</svg>
