<svg width="32" height="32" viewBox="0 0 32 32" fill="none" xmlns="http://www.w3.org/2000/svg">
<path d="M0 16C0 24.8366 7.16344 32 16 32C24.8366 32 32 24.8366 32 16C32 7.16344 24.8366 0 16 0C7.16344 0 0 7.16344 0 16Z" fill="#FF0000"/>
<path d="M23.6 12.1C23.4 11.4 22.9 10.9 22.2 10.7C21 10.4 15.9 10.4 15.9 10.4C15.9 10.4 10.9 10.4 9.60001 10.7C8.90001 10.9 8.4 11.4 8.2 12.1C8 13.4 8 16 8 16C8 16 8 18.6 8.3 19.9C8.5 20.6 9 21.1 9.7 21.3C10.9 21.6 16 21.6 16 21.6C16 21.6 21 21.6 22.3 21.3C23 21.1 23.5 20.6 23.7 19.9C24 18.6 24 16 24 16C24 16 24 13.4 23.6 12.1ZM14.4 18.4V13.6L18.6 16L14.4 18.4Z" fill="white"/>
</svg>
