<?xml version="1.0" encoding="UTF-8"?>
<svg id="Layer_1" data-name="Layer 1" xmlns="http://www.w3.org/2000/svg" viewBox="0 0 1118.76 1269.24">
  <defs>
    <style>
      .cls-1 {
        fill: #fff;
      }

      .cls-2 {
        opacity: .6;
      }

      .cls-3 {
        fill: #73c612;
      }

      .cls-4 {
        opacity: .19;
      }

      .cls-5 {
        opacity: .3;
      }

      .cls-6 {
        fill: #ef701b;
      }

      .cls-7 {
        fill: #000072;
      }

      .cls-8 {
        fill: #ff002b;
      }

      .cls-9 {
        opacity: .25;
      }
    </style>
  </defs>
  <g>
    <path class="cls-8" d="m928.63,1027.03c-123.88,145.95-373.68,314.36-511.16,189.75-26.11-23.65-61.06-34.81-96.05-30.66C137.14,1207.99,31.16,925.98,14.79,735.24-37.94,219.12,277.59,89.75,618.65,260.42c29.31,14.65,60.69,24.67,93.06,29.72,6.12.96,12.19,1.96,18.22,3.06.46.09.89.16,1.35.25,89.09,16,166.54,45.22,227.76,85.87,71.76,47.59,121.25,110.87,141.04,186.92,32.23,123.85-14.27,281.58-171.45,460.79Z"/>
    <path class="cls-7" d="m535.19,1261.44c-46.62,0-86.44-14.69-118.53-43.77-25.84-23.4-60.5-34.47-95.11-30.36-47.61,5.66-92.72-8.56-134.07-42.25C85.01,1061.59,25.51,874.16,13.6,735.34c-12.49-122.24-4.79-227.38,22.9-312.46,25.79-79.26,68.32-139.79,126.41-179.91,113.1-78.1,279.41-72.13,456.27,16.37,29.22,14.61,60.42,24.57,92.71,29.61,6.79,1.06,12.76,2.07,18.25,3.06l1.37.26c89.68,16.11,166.46,45.06,228.18,86.05,73.31,48.61,122.25,113.49,141.54,187.62,34.94,134.26-24.44,293.97-171.71,461.88-90.15,106.22-247.27,224.48-379.15,233.12-5.14.34-10.21.51-15.19.51Zm-199.41-77.36c30.32,0,59.76,11.22,82.5,31.82,35.02,31.74,79.4,46.07,131.96,42.65,131.19-8.59,287.64-126.43,377.49-232.29v-.02c146.73-167.28,205.93-326.24,171.2-459.7-19.14-73.55-67.74-137.94-140.55-186.23-61.45-40.81-137.93-69.64-227.31-85.69l-1.37-.26c-5.45-.99-11.4-1.99-18.16-3.05-32.54-5.07-63.96-15.11-93.41-29.83-176.06-88.1-341.48-94.13-453.84-16.54C79.74,303.31-14.6,435.74,15.98,735.12c11.87,138.35,71.07,325.06,173.01,408.09,40.83,33.26,85.34,47.31,132.28,41.73,4.84-.57,9.68-.86,14.5-.86Z"/>
  </g>
  <g class="cls-5">
    <path class="cls-7" d="m928.63,1027.03c-123.88,145.95-373.68,314.36-511.16,189.75-26.11-23.65-61.06-34.81-96.05-30.66-61.79,7.33-114.77-19.49-158.53-65.58,46.77,30.59,97.97,43.23,151.31,26.91,32.91-10.04,68.43-5.39,97.63,12.83,153.76,95.94,364.69-109.24,458.44-271.04,51.31-85.3,83.84-163.34,100.18-233.58.16-.66.3-1.32.46-1.99.48-2.03.94-4.06,1.35-6.07.02-.07.05-.14.05-.21,19.47-92.22-10.84-168.25-73.82-233.65-34.49,13.44-72.06,18.88-109.68,15.2,5.84,8.54,10.11,17.39,12.53,26.43-132.66,23.4-278.2-38.1-350.61-111.96,29.86-42,146.98-28.85,238.21,12.08,10.96-23.28,25.25-43.96,42.05-61.74.09-.11.21-.21.3-.32,3.06.55,6.12,1.12,9.15,1.69,2.28.43,4.54.89,6.8,1.35,2.94.59,5.87,1.19,8.79,1.8,5,1.07,9.97,2.17,14.91,3.33.41.09.82.18,1.23.3,2.67.62,5.32,1.26,7.97,1.92,2.26.55,4.52,1.12,6.76,1.71.68.16,1.35.34,2.01.5,1.85.48,3.7.98,5.55,1.48.96.25,1.89.5,2.81.75,4.7,1.28,9.38,2.6,13.99,3.97,2.58.78,5.14,1.55,7.69,2.33,2.49.78,4.95,1.55,7.42,2.35,2.49.8,4.98,1.62,7.44,2.44,4.57,1.53,9.11,3.1,13.6,4.72.84.32,1.69.62,2.53.94,1.89.68,3.79,1.39,5.68,2.1,2.31.87,4.59,1.73,6.87,2.65,2.42.94,4.86,1.92,7.26,2.9,4.68,1.89,9.27,3.83,13.81,5.82,2.24.98,4.45,1.96,6.64,2.94.14.07.27.14.41.18,1.85.84,3.68,1.69,5.5,2.56.57.25,1.12.52,1.67.78,1.3.62,2.58,1.21,3.84,1.85,4.79,2.28,9.52,4.66,14.15,7.08,1.37.71,2.74,1.42,4.09,2.15,2.4,1.26,4.79,2.56,7.14,3.88,1.51.82,2.97,1.67,4.45,2.49,9.54,5.39,18.74,11.02,27.6,16.91,1.41.96,2.85,1.92,4.27,2.88,3.36,2.28,6.64,4.59,9.91,6.94,1.28.91,2.53,1.85,3.79,2.76.57.41,1.12.82,1.64,1.23,1.39,1.05,2.78,2.1,4.15,3.15,1.58,1.21,3.15,2.44,4.68,3.65,1.55,1.23,3.1,2.47,4.61,3.72,3.06,2.47,6.05,4.98,8.97,7.56,1.3,1.12,2.56,2.24,3.84,3.38.37.3.73.62,1.07.96,1.14,1.03,2.26,2.05,3.38,3.08,1.96,1.78,3.88,3.61,5.77,5.48.98.94,1.96,1.87,2.92,2.83,2.72,2.67,5.36,5.39,7.97,8.13.05.02.07.05.09.09,1.28,1.35,2.56,2.74,3.81,4.11,1.19,1.28,2.33,2.56,3.47,3.83,3.88,4.34,7.6,8.77,11.18,13.26,1.16,1.46,2.33,2.94,3.45,4.41.96,1.23,1.89,2.47,2.83,3.72,3.52,4.7,6.89,9.5,10.09,14.36,1.03,1.53,2.03,3.08,3.01,4.63.89,1.42,1.78,2.83,2.65,4.25,3.04,4.91,5.89,9.91,8.61,14.97.71,1.35,1.42,2.69,2.1,4.04.18.3.32.59.48.91.55,1.07,1.1,2.15,1.6,3.22.5.94.96,1.87,1.39,2.83.43.84.84,1.71,1.26,2.58.57,1.21,1.14,2.44,1.67,3.67,1.3,2.83,2.56,5.71,3.74,8.58.75,1.78,1.46,3.61,2.17,5.41.75,1.87,1.46,3.77,2.15,5.66.16.41.32.82.46,1.23.59,1.62,1.16,3.24,1.69,4.86,1.73,5,3.29,10.04,4.7,15.16.43,1.48.84,2.97,1.23,4.47.09.3.18.59.23.91h.02c32.23,123.83-14.27,281.56-171.45,460.79Z"/>
  </g>
  <g class="cls-5">
    <path class="cls-7" d="m729.93,293.19c.46.09.89.16,1.35.25-.09.11-.21.21-.3.32-.34-.18-.71-.39-1.05-.57Z"/>
  </g>
  <g class="cls-5">
    <path class="cls-7" d="m869.74,332.68c4.68,1.89,9.27,3.83,13.81,5.82-4.54-2.01-9.15-3.95-13.81-5.82Z"/>
  </g>
  <g class="cls-2">
    <path class="cls-1" d="m941.5,368.25c-57.64-29.72-126.02-51.04-202.4-62.91-32.37-5.02-63.75-15.07-93.06-29.72C304.98,104.97-10.54,234.35,42.18,750.44c12.58,146.59,78.06,347.07,191.35,422.12C103.4,1113.9,28.35,893.24,14.79,735.24-37.94,219.12,277.59,89.75,618.65,260.42c29.31,14.65,60.69,24.67,93.06,29.72,88.86,13.83,166.9,40.42,229.79,78.11Z"/>
  </g>
  <path class="cls-7" d="m535.13,1269.24c-48.59,0-90.15-15.37-123.72-45.79-24.15-21.88-56.56-32.23-88.93-28.39-49.8,5.92-96.88-8.87-139.94-43.95C78.3,1066.2,17.87,876.41,5.83,736c-12.59-123.2-4.77-229.4,23.25-315.53,26.33-80.93,69.86-142.8,129.39-183.91,115.52-79.77,284.71-74.01,464.21,15.8,28.5,14.26,58.92,23.98,90.42,28.87,198.31,30.85,339.52,124.21,387.42,256.16,24.69,68,24.31,143.65-1.14,224.86-27.07,86.41-82.23,177.47-163.95,270.66-91.19,107.42-250.4,227.02-384.53,235.8-5.34.35-10.6.53-15.77.53Zm-199.35-92.98c32.25,0,63.55,11.94,87.72,33.85,33.4,30.27,75.88,43.94,126.23,40.64,128.93-8.44,283.23-124.91,372.03-229.55.03-.04.06-.07.1-.11,155.06-176.8,210.99-341.94,161.75-477.57-45.6-125.59-181.65-214.71-373.27-244.51-33.34-5.19-65.54-15.47-95.71-30.57-173.44-86.78-335.98-93-445.93-17.08C49.97,333.36-.15,500.36,23.75,734.32c11.74,136.89,69.98,321.23,170.16,402.84,39.14,31.88,81.68,45.34,126.45,40.03,5.15-.61,10.3-.91,15.42-.91Z"/>
  <g>
    <path class="cls-6" d="m635.87,452.55c69.08-148.3,76.11-292.36,41.6-425.64-3.31-12.77-16.36-20.44-29.15-17.17l-59.67,15.27c-13.28,3.4-19.2,18.89-11.59,30.29,77.55,116.3,87.9,242.96,14.13,382.53"/>
    <path class="cls-7" d="m636.95,453.06l-2.17-1.01c64.62-138.73,78.59-281.66,41.53-424.83-3.13-12.1-15.56-19.42-27.69-16.31l-59.67,15.27c-5.94,1.52-10.61,5.68-12.8,11.4-2.2,5.73-1.5,11.95,1.91,17.06,39.48,59.21,61.01,120.83,64.01,183.15,3.11,64.69-13.65,132.18-49.82,200.61l-2.12-1.12c70.47-133.33,65.74-261.62-14.07-381.31-3.84-5.77-4.63-12.78-2.15-19.25,2.48-6.46,7.74-11.15,14.44-12.86l59.67-15.27c13.4-3.43,27.14,4.66,30.6,18.03,37.21,143.72,23.18,287.2-41.68,426.44Z"/>
  </g>
  <g class="cls-2">
    <path class="cls-1" d="m605.82,437.07l31.86,11.48c-.59,1.32-1.21,2.67-1.83,3.99l-44.67-14.7c73.77-139.58,63.43-266.24-14.13-382.54-7.6-11.39-1.69-26.89,11.6-30.29l59.67-15.27c6.51-1.67,13.08-.5,18.4,2.76l-52.16,11.85c-13.38,3.01-19.7,18.35-12.42,29.95,74.34,118.38,81.24,245.26,3.67,382.77Z"/>
  </g>
  <path class="cls-7" d="m635.86,461.55c-1.27,0-2.56-.27-3.79-.84-4.51-2.1-6.46-7.45-4.36-11.96,63.84-137.04,77.65-278.21,41.05-419.58-2.06-7.95-10.22-12.75-18.2-10.71l-59.67,15.27c-3.46.89-6.17,3.3-7.45,6.64-1.28,3.34-.88,6.96,1.11,9.94,40.27,60.4,62.25,123.35,65.31,187.1,3.18,66.1-13.88,134.95-50.71,204.63-2.32,4.39-7.77,6.07-12.16,3.75-4.39-2.32-6.07-7.77-3.75-12.16,70-132.44,65.54-254.56-13.66-373.33-5.19-7.78-6.29-17.64-2.94-26.37,3.34-8.72,10.74-15.31,19.79-17.63l59.67-15.27c17.57-4.49,35.55,6.11,40.09,23.63,37.67,145.52,23.49,290.76-42.16,431.69-1.53,3.28-4.77,5.2-8.16,5.2Z"/>
  <g>
    <path class="cls-3" d="m1028.74,247.39c-54.9,119.73-196.48,172.31-316.23,117.4-12.82-5.88-24.85-12.73-36.08-20.48,3.06-10.08,6.85-20.08,11.36-29.91,54.9-119.73,196.5-172.28,316.22-117.38,12.82,5.88,24.87,12.74,36.09,20.51-3.07,10.05-6.86,20.02-11.37,29.86Z"/>
    <path class="cls-7" d="m811.56,387.69c-33.39,0-67.27-7-99.55-21.81-12.72-5.83-24.92-12.76-36.26-20.58l-.72-.5.25-.84c3.08-10.14,6.92-20.25,11.42-30.06,55.09-120.14,197.66-173.07,317.81-117.96,12.78,5.86,24.98,12.79,36.27,20.61l.72.5-.26.84c-3.11,10.16-6.95,20.26-11.42,30.01-40.29,87.87-127.38,139.79-218.26,139.79Zm-133.73-43.86c11.02,7.54,22.85,14.22,35.18,19.88,118.95,54.54,260.1,2.14,314.65-116.81,4.31-9.39,8.02-19.1,11.05-28.88-10.97-7.54-22.81-14.23-35.19-19.91-118.95-54.54-260.1-2.15-314.64,116.79-4.33,9.44-8.05,19.17-11.05,28.93Z"/>
  </g>
  <g class="cls-5">
    <path class="cls-7" d="m1040.11,217.53c-3.08,10.07-6.87,20.02-11.37,29.86-54.9,119.74-196.49,172.31-316.23,117.42-12.83-5.89-24.86-12.74-36.09-20.5,2.08-6.8,4.47-13.58,7.21-20.29,4.79,2.63,9.72,5.09,14.77,7.4,119.74,54.9,261.33,2.33,316.23-117.42,1.46-3.17,2.85-6.39,4.13-9.59,7.42,4.04,14.52,8.42,21.34,13.12Z"/>
  </g>
  <g class="cls-2">
    <path class="cls-1" d="m1040.11,217.53c-.78,2.51-1.57,5.02-2.44,7.53-7.12-4.25-14.54-8.13-22.23-11.64-119.74-54.92-261.33-2.35-316.23,117.37-3.38,7.37-6.37,14.84-8.95,22.37-4.75-2.81-9.36-5.75-13.83-8.86,3.06-10.07,6.85-20.06,11.37-29.9,54.9-119.72,196.49-172.27,316.23-117.37,12.81,5.87,24.86,12.74,36.09,20.5Z"/>
  </g>
  <path class="cls-7" d="m811.55,395.49c-34.47,0-69.46-7.23-102.8-22.52-13.13-6.02-25.73-13.17-37.44-21.25-3.22-2.22-4.64-6.27-3.5-10.02,3.18-10.47,7.15-20.92,11.79-31.05,56.88-124.05,204.09-178.69,328.15-121.8,13.19,6.05,25.8,13.21,37.46,21.29,3.22,2.23,4.63,6.28,3.48,10.03-3.21,10.49-7.18,20.92-11.79,30.98h0c-41.6,90.73-131.53,144.34-225.37,144.34Zm-124.49-54.89c9.26,5.99,19.05,11.36,29.19,16.01,115.04,52.75,251.55,2.07,304.3-112.97h0c3.35-7.31,6.34-14.83,8.9-22.41-9.22-5.98-19.02-11.36-29.2-16.03-115.04-52.75-251.54-2.08-304.29,112.95-3.37,7.35-6.36,14.88-8.91,22.45Zm341.67-93.2h.03-.03Z"/>
  <path class="cls-7" d="m723.47,472.36c-104.07,0-199.96-43.29-286-129.34-3.52-3.51-3.51-9.21,0-12.73,3.52-3.51,9.21-3.51,12.73,0,105.27,105.28,225.66,143.8,357.82,114.49,4.85-1.07,9.66,1.99,10.74,6.84,1.08,4.85-1.99,9.66-6.84,10.73-30.08,6.67-59.59,10-88.45,10Z"/>
  <path class="cls-7" d="m673.27,335.88l71.02-26.57c23.71-8.77,47.26-17.94,70.83-27.07,23.56-9.17,47.55-17.15,71.62-24.95,24.1-7.72,48.33-15.09,72.96-21.37,1.21-.31,2.44.42,2.75,1.63.27,1.05-.25,2.11-1.18,2.58-22.71,11.43-45.83,21.77-69.07,31.77-23.27,9.92-46.62,19.64-70.41,28.19-23.77,8.58-47.57,17.12-71.2,26.07l-71.02,26.57c-4.66,1.74-9.84-.62-11.58-5.28-1.74-4.66.62-9.84,5.28-11.58Z"/>
  <path class="cls-7" d="m865.02,266.8l66.6,28.35c1.15.49,1.68,1.82,1.19,2.96-.43,1.02-1.52,1.55-2.56,1.32l-70.71-15.49c-4.88-1.07-7.96-5.89-6.9-10.76,1.07-4.88,5.89-7.96,10.76-6.9.54.12,1.11.31,1.61.51Z"/>
  <path class="cls-7" d="m823.69,245.64l-43.36,67.92c-2.68,4.2-8.27,5.44-12.47,2.75-4.2-2.68-5.44-8.27-2.75-12.47.27-.42.6-.84.92-1.2l54.09-59.73c.84-.92,2.26-.99,3.19-.16.83.75.97,1.98.39,2.89Z"/>
  <g class="cls-4">
    <circle class="cls-1" cx="238.76" cy="915.2" r="48.63" transform="translate(-703.49 997.5) rotate(-80.37)"/>
  </g>
  <g class="cls-4">
    <path class="cls-1" d="m147.22,517.19c-48.07,88.93-53.43,180.35-15.92,266.96,11.52,26.6,42.82,38.4,69.26,26.51h0c25.39-11.42,37.34-40.71,27.28-66.66-25.5-65.75-27.97-133.49-7.37-195.17,7.5-22.45-5.99-46.46-29.06-51.72h0c-17.56-4-35.62,4.23-44.18,20.08Z"/>
  </g>
  <g class="cls-5">
    <path class="cls-7" d="m937.23,365.74c7.19,4.18,14.2,8.54,21,13.06-6.8-4.5-13.81-8.83-21-13.06Z"/>
  </g>
  <g class="cls-5">
    <path class="cls-7" d="m970.42,655.69c.16-.66.32-1.35.48-2.01-.16.66-.3,1.32-.46,1.99l-.02.02Z"/>
  </g>
  <g class="cls-5">
    <path class="cls-7" d="m1018.04,426.93c2.72,2.67,5.39,5.39,7.97,8.13-2.6-2.74-5.25-5.46-7.97-8.13Z"/>
  </g>
  <g class="cls-5">
    <path class="cls-7" d="m1100.07,566.24h-.02c-.05-.32-.14-.62-.23-.91.09.3.18.62.25.91Z"/>
  </g>
  <g class="cls-5">
    <path class="cls-7" d="m686.86,344.31c86.98-97.23,187.51-144.18,307.58-118.64l-307.58,118.64Z"/>
  </g>
  <g class="cls-9">
    <path class="cls-1" d="m774.29,557.47c-11.25,36.59-101.29,41.38-201.11,10.7-99.82-30.69-171.63-85.23-160.38-121.82,11.25-36.59,80.92,24.88,180.74,55.56,99.82,30.69,191.99,18.97,180.74,55.56Z"/>
  </g>
</svg>