<?xml version="1.0" encoding="UTF-8"?>
<svg id="Camada_2" data-name="Camada 2" xmlns="http://www.w3.org/2000/svg" viewBox="0 0 101.48 84.83">
  <defs>
    <style>
      .cls-1 {
        fill: #cd6b03;
      }

      .cls-1, .cls-2, .cls-3 {
        font-family: Merienda-Bold, Merienda;
        font-variation-settings: 'wght' 700;
        font-weight: 700;
      }

      .cls-1, .cls-3 {
        font-size: 32.53px;
      }

      .cls-4, .cls-5 {
        fill: none;
      }

      .cls-4, .cls-5, .cls-6 {
        stroke: #336535;
        stroke-width: .5px;
      }

      .cls-4, .cls-6 {
        stroke-miterlimit: 1.59;
      }

      .cls-5 {
        stroke-linecap: round;
        stroke-linejoin: round;
      }

      .cls-2 {
        font-size: 65.06px;
      }

      .cls-2, .cls-3 {
        fill: #336535;
      }

      .cls-6 {
        fill: #55963d;
        fill-rule: evenodd;
      }
    </style>
  </defs>
  <g id="Camada_1-2" data-name="Camada 1">
    <g>
      <text class="cls-2" transform="translate(6.22 62.26)"><tspan x="0" y="0">P</tspan></text>
      <text class="cls-1" transform="translate(26.83 63.36)"><tspan x="0" y="0">roça</tspan></text>
      <text class="cls-3" transform="translate(45.86 41.04)"><tspan x="0" y="0">ede</tspan></text>
      <g id="g3850">
        <path id="path3055" class="cls-6" d="m12.23,9.56s-4.57-1.16-7.88,3.17C1.05,17.06.21,25.22.25,25.25s7.38-3.16,10.68-7.49c3.31-4.33,1.34-8.16,1.3-8.2h0Z"/>
        <path id="path3062" class="cls-5" d="m11.71,10.15L2.07,22.77"/>
        <path id="path3068" class="cls-5" d="m5.57,13.45c2.6-.11,4.08,1.16,4.66,3.56"/>
        <path id="path3070" class="cls-5" d="m5.57,13.45c2.6-.11,4.08,1.16,4.66,3.56"/>
        <path id="path3072" class="cls-5" d="m7.43,11.71c2.22-.09,3.49,1,3.99,3.05"/>
        <path id="path3074" class="cls-5" d="m4.3,15.56c2.35-.1,3.7,1.06,4.23,3.23"/>
        <path id="path3076" class="cls-5" d="m3.2,18.05c1.78-.06,2.81.82,3.22,2.46"/>
        <path id="path3078" class="cls-5" d="m2.75,20.23c.91,0,1.45.45,1.68,1.28"/>
        <path id="path3848" class="cls-4" d="m12.23,9.47c.97-1.16,2.92-1.04,3.99-.15"/>
      </g>
    </g>
  </g>
</svg>